<svg xmlns="http://www.w3.org/2000/svg" viewBox="0 0 100 100"><rect width="100" height="100" rx="0" fill="#0b0f13"/><rect x="16.00" y="17.59" width="4.73" height="1.16" fill="#ff9d2e" rx="0.8"/><rect x="22.33" y="17.59" width="4.73" height="1.16" fill="#ff9d2e" rx="0.8"/><rect x="28.65" y="16.61" width="4.73" height="2.15" fill="#ffffff" rx="0.8"/><rect x="34.98" y="17.59" width="4.73" height="1.16" fill="#ff9d2e" rx="0.8"/><rect x="41.31" y="18.09" width="4.73" height="0.66" fill="#4fc3ff" rx="0.8"/><rect x="47.64" y="17.05" width="4.73" height="1.71" fill="#ff5fb0" rx="0.8"/><rect x="53.96" y="18.09" width="4.73" height="0.66" fill="#4fc3ff" rx="0.8"/><rect x="60.29" y="17.05" width="4.73" height="1.71" fill="#ff5fb0" rx="0.8"/><rect x="66.62" y="16.61" width="4.73" height="2.15" fill="#ffffff" rx="0.8"/><rect x="72.95" y="17.05" width="4.73" height="1.71" fill="#ff5fb0" rx="0.8"/><rect x="79.27" y="17.59" width="4.73" height="1.16" fill="#ff9d2e" rx="0.8"/><rect x="16.00" y="22.44" width="4.73" height="0.66" fill="#4fc3ff" rx="0.8"/><rect x="22.33" y="21.95" width="4.73" height="1.16" fill="#ff9d2e" rx="0.8"/><rect x="28.65" y="21.40" width="4.73" height="1.71" fill="#ff5fb0" rx="0.8"/><rect x="34.98" y="22.44" width="4.73" height="0.66" fill="#4fc3ff" rx="0.8"/><rect x="41.31" y="21.40" width="4.73" height="1.71" fill="#ff5fb0" rx="0.8"/><rect x="47.64" y="20.96" width="4.73" height="2.15" fill="#ffffff" rx="0.8"/><rect x="53.96" y="21.40" width="4.73" height="1.71" fill="#ff5fb0" rx="0.8"/><rect x="60.29" y="21.40" width="4.73" height="1.71" fill="#ff5fb0" rx="0.8"/><rect x="66.62" y="21.95" width="4.73" height="1.16" fill="#ff9d2e" rx="0.8"/><rect x="72.95" y="21.95" width="4.73" height="1.16" fill="#ff9d2e" rx="0.8"/><rect x="79.27" y="21.95" width="4.73" height="1.16" fill="#ff9d2e" rx="0.8"/><rect x="16.00" y="26.29" width="4.73" height="1.16" fill="#ff9d2e" rx="0.8"/><rect x="22.33" y="26.29" width="4.73" height="1.16" fill="#ff9d2e" rx="0.8"/><rect x="28.65" y="26.79" width="4.73" height="0.66" fill="#4fc3ff" rx="0.8"/><rect x="34.98" y="26.29" width="4.73" height="1.16" fill="#ff9d2e" rx="0.8"/><rect x="41.31" y="25.30" width="4.73" height="2.15" fill="#ffffff" rx="0.8"/><rect x="47.64" y="26.29" width="4.73" height="1.16" fill="#ff9d2e" rx="0.8"/><rect x="53.96" y="25.30" width="4.73" height="2.15" fill="#ffffff" rx="0.8"/><rect x="60.29" y="25.74" width="4.73" height="1.71" fill="#ff5fb0" rx="0.8"/><rect x="66.62" y="26.79" width="4.73" height="0.66" fill="#4fc3ff" rx="0.8"/><rect x="72.95" y="25.30" width="4.73" height="2.15" fill="#ffffff" rx="0.8"/><rect x="79.27" y="25.30" width="4.73" height="2.15" fill="#ffffff" rx="0.8"/><rect x="16.00" y="30.64" width="4.73" height="1.16" fill="#ff9d2e" rx="0.8"/><rect x="22.33" y="30.09" width="4.73" height="1.71" fill="#ff5fb0" rx="0.8"/><rect x="28.65" y="29.65" width="4.73" height="2.15" fill="#ffffff" rx="0.8"/><rect x="34.98" y="29.65" width="4.73" height="2.15" fill="#ffffff" rx="0.8"/><rect x="41.31" y="31.14" width="4.73" height="0.66" fill="#4fc3ff" rx="0.8"/><rect x="47.64" y="29.65" width="4.73" height="2.15" fill="#ffffff" rx="0.8"/><rect x="53.96" y="30.09" width="4.73" height="1.71" fill="#ff5fb0" rx="0.8"/><rect x="60.29" y="31.14" width="4.73" height="0.66" fill="#4fc3ff" rx="0.8"/><rect x="66.62" y="29.65" width="4.73" height="2.15" fill="#ffffff" rx="0.8"/><rect x="72.95" y="30.09" width="4.73" height="1.71" fill="#ff5fb0" rx="0.8"/><rect x="79.27" y="30.64" width="4.73" height="1.16" fill="#ff9d2e" rx="0.8"/><rect x="16.00" y="34.00" width="4.73" height="2.15" fill="#ffffff" rx="0.8"/><rect x="22.33" y="34.00" width="4.73" height="2.15" fill="#ffffff" rx="0.8"/><rect x="28.65" y="34.99" width="4.73" height="1.16" fill="#ff9d2e" rx="0.8"/><rect x="34.98" y="34.99" width="4.73" height="1.16" fill="#ff9d2e" rx="0.8"/><rect x="41.31" y="35.49" width="4.73" height="0.66" fill="#4fc3ff" rx="0.8"/><rect x="47.64" y="34.00" width="4.73" height="2.15" fill="#ffffff" rx="0.8"/><rect x="53.96" y="34.45" width="4.73" height="1.71" fill="#ff5fb0" rx="0.8"/><rect x="60.29" y="35.49" width="4.73" height="0.66" fill="#4fc3ff" rx="0.8"/><rect x="66.62" y="35.49" width="4.73" height="0.66" fill="#4fc3ff" rx="0.8"/><rect x="72.95" y="34.99" width="4.73" height="1.16" fill="#ff9d2e" rx="0.8"/><rect x="79.27" y="34.00" width="4.73" height="2.15" fill="#ffffff" rx="0.8"/><rect x="16.00" y="39.34" width="4.73" height="1.16" fill="#ff9d2e" rx="0.8"/><rect x="22.33" y="38.35" width="4.73" height="2.15" fill="#ffffff" rx="0.8"/><rect x="28.65" y="39.34" width="4.73" height="1.16" fill="#ff9d2e" rx="0.8"/><rect x="34.98" y="38.35" width="4.73" height="2.15" fill="#ffffff" rx="0.8"/><rect x="41.31" y="39.34" width="4.73" height="1.16" fill="#ff9d2e" rx="0.8"/><rect x="47.64" y="38.80" width="4.73" height="1.71" fill="#ff5fb0" rx="0.8"/><rect x="53.96" y="39.84" width="4.73" height="0.66" fill="#4fc3ff" rx="0.8"/><rect x="60.29" y="38.35" width="4.73" height="2.15" fill="#ffffff" rx="0.8"/><rect x="66.62" y="39.84" width="4.73" height="0.66" fill="#4fc3ff" rx="0.8"/><rect x="72.95" y="38.35" width="4.73" height="2.15" fill="#ffffff" rx="0.8"/><rect x="79.27" y="38.80" width="4.73" height="1.71" fill="#ff5fb0" rx="0.8"/><rect x="16.00" y="43.69" width="4.73" height="1.16" fill="#ff9d2e" rx="0.8"/><rect x="22.33" y="43.69" width="4.73" height="1.16" fill="#ff9d2e" rx="0.8"/><rect x="28.65" y="44.19" width="4.73" height="0.66" fill="#4fc3ff" rx="0.8"/><rect x="34.98" y="43.69" width="4.73" height="1.16" fill="#ff9d2e" rx="0.8"/><rect x="41.31" y="44.19" width="4.73" height="0.66" fill="#4fc3ff" rx="0.8"/><rect x="47.64" y="44.19" width="4.73" height="0.66" fill="#4fc3ff" rx="0.8"/><rect x="53.96" y="43.69" width="4.73" height="1.16" fill="#ff9d2e" rx="0.8"/><rect x="60.29" y="42.70" width="4.73" height="2.15" fill="#ffffff" rx="0.8"/><rect x="66.62" y="42.70" width="4.73" height="2.15" fill="#ffffff" rx="0.8"/><rect x="72.95" y="44.19" width="4.73" height="0.66" fill="#4fc3ff" rx="0.8"/><rect x="79.27" y="42.70" width="4.73" height="2.15" fill="#ffffff" rx="0.8"/><rect x="16.00" y="48.54" width="4.73" height="0.66" fill="#4fc3ff" rx="0.8"/><rect x="22.33" y="47.05" width="4.73" height="2.15" fill="#ffffff" rx="0.8"/><rect x="28.65" y="47.49" width="4.73" height="1.71" fill="#ff5fb0" rx="0.8"/><rect x="34.98" y="48.04" width="4.73" height="1.16" fill="#ff9d2e" rx="0.8"/><rect x="41.31" y="47.05" width="4.73" height="2.15" fill="#ffffff" rx="0.8"/><rect x="47.64" y="48.54" width="4.73" height="0.66" fill="#4fc3ff" rx="0.8"/><rect x="53.96" y="47.49" width="4.73" height="1.71" fill="#ff5fb0" rx="0.8"/><rect x="60.29" y="48.54" width="4.73" height="0.66" fill="#4fc3ff" rx="0.8"/><rect x="66.62" y="48.04" width="4.73" height="1.16" fill="#ff9d2e" rx="0.8"/><rect x="72.95" y="48.54" width="4.73" height="0.66" fill="#4fc3ff" rx="0.8"/><rect x="79.27" y="48.54" width="4.73" height="0.66" fill="#4fc3ff" rx="0.8"/><rect x="16.00" y="51.84" width="4.73" height="1.71" fill="#ff5fb0" rx="0.8"/><rect x="22.33" y="52.39" width="4.73" height="1.16" fill="#ff9d2e" rx="0.8"/><rect x="28.65" y="52.89" width="4.73" height="0.66" fill="#4fc3ff" rx="0.8"/><rect x="34.98" y="52.39" width="4.73" height="1.16" fill="#ff9d2e" rx="0.8"/><rect x="41.31" y="51.40" width="4.73" height="2.15" fill="#ffffff" rx="0.8"/><rect x="47.64" y="52.39" width="4.73" height="1.16" fill="#ff9d2e" rx="0.8"/><rect x="53.96" y="52.89" width="4.73" height="0.66" fill="#4fc3ff" rx="0.8"/><rect x="60.29" y="51.84" width="4.73" height="1.71" fill="#ff5fb0" rx="0.8"/><rect x="66.62" y="51.40" width="4.73" height="2.15" fill="#ffffff" rx="0.8"/><rect x="72.95" y="52.39" width="4.73" height="1.16" fill="#ff9d2e" rx="0.8"/><rect x="79.27" y="52.39" width="4.73" height="1.16" fill="#ff9d2e" rx="0.8"/><rect x="16.00" y="56.20" width="4.73" height="1.71" fill="#ff5fb0" rx="0.8"/><rect x="22.33" y="56.74" width="4.73" height="1.16" fill="#ff9d2e" rx="0.8"/><rect x="28.65" y="57.24" width="4.73" height="0.66" fill="#4fc3ff" rx="0.8"/><rect x="34.98" y="57.24" width="4.73" height="0.66" fill="#4fc3ff" rx="0.8"/><rect x="41.31" y="55.75" width="4.73" height="2.15" fill="#ffffff" rx="0.8"/><rect x="47.64" y="56.74" width="4.73" height="1.16" fill="#ff9d2e" rx="0.8"/><rect x="53.96" y="56.20" width="4.73" height="1.71" fill="#ff5fb0" rx="0.8"/><rect x="60.29" y="56.20" width="4.73" height="1.71" fill="#ff5fb0" rx="0.8"/><rect x="66.62" y="57.24" width="4.73" height="0.66" fill="#4fc3ff" rx="0.8"/><rect x="72.95" y="57.24" width="4.73" height="0.66" fill="#4fc3ff" rx="0.8"/><rect x="79.27" y="57.24" width="4.73" height="0.66" fill="#4fc3ff" rx="0.8"/><rect x="16.00" y="60.10" width="4.73" height="2.15" fill="#ffffff" rx="0.8"/><rect x="22.33" y="61.09" width="4.73" height="1.16" fill="#ff9d2e" rx="0.8"/><rect x="28.65" y="61.09" width="4.73" height="1.16" fill="#ff9d2e" rx="0.8"/><rect x="34.98" y="61.09" width="4.73" height="1.16" fill="#ff9d2e" rx="0.8"/><rect x="41.31" y="60.10" width="4.73" height="2.15" fill="#ffffff" rx="0.8"/><rect x="47.64" y="61.09" width="4.73" height="1.16" fill="#ff9d2e" rx="0.8"/><rect x="53.96" y="60.55" width="4.73" height="1.71" fill="#ff5fb0" rx="0.8"/><rect x="60.29" y="61.09" width="4.73" height="1.16" fill="#ff9d2e" rx="0.8"/><rect x="66.62" y="61.09" width="4.73" height="1.16" fill="#ff9d2e" rx="0.8"/><rect x="72.95" y="61.09" width="4.73" height="1.16" fill="#ff9d2e" rx="0.8"/><rect x="79.27" y="60.55" width="4.73" height="1.71" fill="#ff5fb0" rx="0.8"/><rect x="16.00" y="65.44" width="4.73" height="1.16" fill="#ff9d2e" rx="0.8"/><rect x="22.33" y="65.44" width="4.73" height="1.16" fill="#ff9d2e" rx="0.8"/><rect x="28.65" y="64.89" width="4.73" height="1.71" fill="#ff5fb0" rx="0.8"/><rect x="34.98" y="65.94" width="4.73" height="0.66" fill="#4fc3ff" rx="0.8"/><rect x="41.31" y="65.44" width="4.73" height="1.16" fill="#ff9d2e" rx="0.8"/><rect x="47.64" y="65.94" width="4.73" height="0.66" fill="#4fc3ff" rx="0.8"/><rect x="53.96" y="65.94" width="4.73" height="0.66" fill="#4fc3ff" rx="0.8"/><rect x="60.29" y="65.44" width="4.73" height="1.16" fill="#ff9d2e" rx="0.8"/><rect x="66.62" y="65.94" width="4.73" height="0.66" fill="#4fc3ff" rx="0.8"/><rect x="72.95" y="64.89" width="4.73" height="1.71" fill="#ff5fb0" rx="0.8"/><rect x="79.27" y="64.89" width="4.73" height="1.71" fill="#ff5fb0" rx="0.8"/><rect x="16.00" y="69.79" width="4.73" height="1.16" fill="#ff9d2e" rx="0.8"/><rect x="22.33" y="70.29" width="4.73" height="0.66" fill="#4fc3ff" rx="0.8"/><rect x="28.65" y="69.79" width="4.73" height="1.16" fill="#ff9d2e" rx="0.8"/><rect x="34.98" y="69.24" width="4.73" height="1.71" fill="#ff5fb0" rx="0.8"/><rect x="41.31" y="69.24" width="4.73" height="1.71" fill="#ff5fb0" rx="0.8"/><rect x="47.64" y="70.29" width="4.73" height="0.66" fill="#4fc3ff" rx="0.8"/><rect x="53.96" y="69.24" width="4.73" height="1.71" fill="#ff5fb0" rx="0.8"/><rect x="60.29" y="69.79" width="4.73" height="1.16" fill="#ff9d2e" rx="0.8"/><rect x="66.62" y="68.80" width="4.73" height="2.15" fill="#ffffff" rx="0.8"/><rect x="72.95" y="69.79" width="4.73" height="1.16" fill="#ff9d2e" rx="0.8"/><rect x="79.27" y="68.80" width="4.73" height="2.15" fill="#ffffff" rx="0.8"/><rect x="16.00" y="74.14" width="4.73" height="1.16" fill="#ff9d2e" rx="0.8"/><rect x="22.33" y="74.14" width="4.73" height="1.16" fill="#ff9d2e" rx="0.8"/><rect x="28.65" y="73.16" width="4.73" height="2.15" fill="#ffffff" rx="0.8"/><rect x="34.98" y="74.14" width="4.73" height="1.16" fill="#ff9d2e" rx="0.8"/><rect x="41.31" y="73.16" width="4.73" height="2.15" fill="#ffffff" rx="0.8"/><rect x="47.64" y="73.59" width="4.73" height="1.71" fill="#ff5fb0" rx="0.8"/><rect x="53.96" y="73.59" width="4.73" height="1.71" fill="#ff5fb0" rx="0.8"/><rect x="60.29" y="74.64" width="4.73" height="0.66" fill="#4fc3ff" rx="0.8"/><rect x="66.62" y="74.64" width="4.73" height="0.66" fill="#4fc3ff" rx="0.8"/><rect x="72.95" y="73.16" width="4.73" height="2.15" fill="#ffffff" rx="0.8"/><rect x="79.27" y="73.59" width="4.73" height="1.71" fill="#ff5fb0" rx="0.8"/><rect x="16.00" y="77.50" width="4.73" height="2.15" fill="#ffffff" rx="0.8"/><rect x="22.33" y="77.50" width="4.73" height="2.15" fill="#ffffff" rx="0.8"/><rect x="28.65" y="78.99" width="4.73" height="0.66" fill="#4fc3ff" rx="0.8"/><rect x="34.98" y="78.49" width="4.73" height="1.16" fill="#ff9d2e" rx="0.8"/><rect x="41.31" y="78.99" width="4.73" height="0.66" fill="#4fc3ff" rx="0.8"/><rect x="47.64" y="78.49" width="4.73" height="1.16" fill="#ff9d2e" rx="0.8"/><rect x="53.96" y="78.49" width="4.73" height="1.16" fill="#ff9d2e" rx="0.8"/><rect x="60.29" y="78.99" width="4.73" height="0.66" fill="#4fc3ff" rx="0.8"/><rect x="66.62" y="78.99" width="4.73" height="0.66" fill="#4fc3ff" rx="0.8"/><rect x="72.95" y="78.49" width="4.73" height="1.16" fill="#ff9d2e" rx="0.8"/><rect x="79.27" y="78.49" width="4.73" height="1.16" fill="#ff9d2e" rx="0.8"/><rect x="16.00" y="82.84" width="4.73" height="1.16" fill="#ff9d2e" rx="0.8"/><rect x="22.33" y="83.34" width="4.73" height="0.66" fill="#4fc3ff" rx="0.8"/><rect x="28.65" y="81.25" width="4.73" height="2.75" fill="#4dffa0" rx="0.8"/></svg>