ISO-10303-21;
HEADER;
FILE_DESCRIPTION(('Open CASCADE Model'),'2;1');
FILE_NAME('Open CASCADE Shape Model','2026-08-31T14:13:45',('Author'),(
    'Open CASCADE'),'Open CASCADE STEP processor 7.9','build123d',
  'Unknown');
FILE_SCHEMA(('AUTOMOTIVE_DESIGN { 1 0 10303 214 1 1 1 1 }'));
ENDSEC;
DATA;
#1 = APPLICATION_PROTOCOL_DEFINITION('international standard',
  'automotive_design',2000,#2);
#2 = APPLICATION_CONTEXT(
  'core data for automotive mechanical design processes');
#3 = SHAPE_DEFINITION_REPRESENTATION(#4,#10);
#4 = PRODUCT_DEFINITION_SHAPE('','',#5);
#5 = PRODUCT_DEFINITION('design','',#6,#9);
#6 = PRODUCT_DEFINITION_FORMATION('','',#7);
#7 = PRODUCT('SOLID','SOLID','',(#8));
#8 = PRODUCT_CONTEXT('',#2,'mechanical');
#9 = PRODUCT_DEFINITION_CONTEXT('part definition',#2,'design');
#10 = ADVANCED_BREP_SHAPE_REPRESENTATION('',(#11,#15),#423);
#11 = AXIS2_PLACEMENT_3D('',#12,#13,#14);
#12 = CARTESIAN_POINT('',(0.,0.,0.));
#13 = DIRECTION('',(0.,0.,1.));
#14 = DIRECTION('',(1.,0.,-0.));
#15 = MANIFOLD_SOLID_BREP('',#16);
#16 = CLOSED_SHELL('',(#17,#415,#419));
#17 = ADVANCED_FACE('',(#18),#67,.T.);
#18 = FACE_BOUND('',#19,.T.);
#19 = EDGE_LOOP('',(#20,#346,#380,#381));
#20 = ORIENTED_EDGE('',*,*,#21,.T.);
#21 = EDGE_CURVE('',#22,#24,#26,.T.);
#22 = VERTEX_POINT('',#23);
#23 = CARTESIAN_POINT('',(14.6,-1.459249387992E-14,-1.7763568394E-15));
#24 = VERTEX_POINT('',#25);
#25 = CARTESIAN_POINT('',(14.6,3.727026812173E-10,23.999999996157));
#26 = SEAM_CURVE('',#27,(#66,#339),.PCURVE_S1.);
#27 = ( BOUNDED_CURVE() B_SPLINE_CURVE(10,(#28,#29,#30,#31,#32,#33,#34,
    #35,#36,#37,#38,#39,#40,#41,#42,#43,#44,#45,#46,#47,#48,#49,#50,#51,
    #52,#53,#54,#55,#56,#57,#58,#59,#60,#61,#62,#63,#64,#65),
.UNSPECIFIED.,.F.,.F.) B_SPLINE_CURVE_WITH_KNOTS((11,9,9,9,11),(0.,
    7.629325651881,15.258651303762,22.887976955643,30.517302607524),
.UNSPECIFIED.) CURVE() GEOMETRIC_REPRESENTATION_ITEM() 
RATIONAL_B_SPLINE_CURVE((1.669078461068,1.669078461068,1.669078461068,
    1.669078461069,1.669078461068,1.669078461069,1.669078461068,
    1.669078461068,1.669078461068,1.669078461068,1.669078461068,
    1.669078461068,1.669078461068,1.669078461069,1.669078461067,
    1.669078461069,1.669078461068,1.669078461068,1.669078461068,
    1.669078461068,1.669078461068,1.669078461069,1.669078461068,
    1.669078461069,1.669078461068,1.669078461069,1.669078461068,
    1.669078461068,1.669078461068,1.669078461068,1.669078461069,
    1.669078461068,1.669078461069,1.669078461068,1.669078461069,
1.669078461068,1.669078461068,1.669078461068)) REPRESENTATION_ITEM('') 
  );
#28 = CARTESIAN_POINT('',(14.6,-1.459249387992E-14,-1.7763568394E-15));
#29 = CARTESIAN_POINT('',(14.60000000001,6.880087902717,0.599999971165)
  );
#30 = CARTESIAN_POINT('',(10.997874461831,13.760387798185,1.20000008688)
  );
#31 = CARTESIAN_POINT('',(3.791017063722,18.517043286365,1.799999847062)
  );
#32 = CARTESIAN_POINT('',(-5.579961580972,19.035977322759,2.400000128088
    ));
#33 = CARTESIAN_POINT('',(-14.29581164405,14.29581164434,2.999999991527)
  );
#34 = CARTESIAN_POINT('',(-19.03597732365,5.579961579992,3.599999880126)
  );
#35 = CARTESIAN_POINT('',(-18.51704328554,-3.791017063895,4.200000139287
    ));
#36 = CARTESIAN_POINT('',(-13.76038779847,-10.99787446235,4.799999915942
    ));
#37 = CARTESIAN_POINT('',(-6.880087901971,-14.6000000001,5.400000020975)
  );
#38 = CARTESIAN_POINT('',(6.880087902353,-14.59999999995,6.599999975036)
  );
#39 = CARTESIAN_POINT('',(13.760387798738,-10.99787446187,7.2000000809)
  );
#40 = CARTESIAN_POINT('',(18.517043285671,-3.791017063698,7.799999854592
    ));
#41 = CARTESIAN_POINT('',(19.0359773235,5.57996158096,8.400000120305));
#42 = CARTESIAN_POINT('',(14.295811643669,14.295811644085,8.999999998095
    ));
#43 = CARTESIAN_POINT('',(5.579961580493,19.0359773236,9.599999875686));
#44 = CARTESIAN_POINT('',(-3.791017064183,18.5170432856,10.20000014159)
  );
#45 = CARTESIAN_POINT('',(-10.99787446224,13.760387798442,
    10.799999915117));
#46 = CARTESIAN_POINT('',(-14.60000000013,6.880087901975,11.400000021103
    ));
#47 = CARTESIAN_POINT('',(-14.59999999994,-6.880087902347,
    12.599999975016));
#48 = CARTESIAN_POINT('',(-10.99787446191,-13.76038779877,
    13.200000080743));
#49 = CARTESIAN_POINT('',(-3.791017063622,-18.51704328557,
    13.799999855092));
#50 = CARTESIAN_POINT('',(5.579961580846,-19.03597732363,14.400000119435
    ));
#51 = CARTESIAN_POINT('',(14.295811644217,-14.29581164354,
    14.999999999131));
#52 = CARTESIAN_POINT('',(19.03597732348,-5.579961580568,15.599999874797
    ));
#53 = CARTESIAN_POINT('',(18.517043285686,3.791017064212,16.200000142144
    ));
#54 = CARTESIAN_POINT('',(13.760387798396,10.997874462235,
    16.799999914871));
#55 = CARTESIAN_POINT('',(6.880087901993,14.600000000134,17.400000021175
    ));
#56 = CARTESIAN_POINT('',(-6.880087902378,14.599999999936,
    18.599999974925));
#57 = CARTESIAN_POINT('',(-13.76038779862,10.997874461956,19.20000008101
    ));
#58 = CARTESIAN_POINT('',(-18.51704328591,3.791017063541,19.799999854823
    ));
#59 = CARTESIAN_POINT('',(-19.03597732314,-5.579961580715,
    20.400000119025));
#60 = CARTESIAN_POINT('',(-14.29581164402,-14.29581164442,
    21.000000001144));
#61 = CARTESIAN_POINT('',(-5.579961580269,-19.03597732316,
    21.599999870835));
#62 = CARTESIAN_POINT('',(3.791017064122,-18.51704328609,22.200000147273
    ));
#63 = CARTESIAN_POINT('',(10.997874462203,-13.76038779798,
    22.799999910021));
#64 = CARTESIAN_POINT('',(14.600000000189,-6.88008790231,23.400000024649
    ));
#65 = CARTESIAN_POINT('',(14.6,3.727026812173E-10,23.999999996157));
#66 = PCURVE('',#67,#334);
#67 = ( BOUNDED_SURFACE() B_SPLINE_SURFACE(6,10,(
    (#68,#69,#70,#71,#72,#73,#74,#75,#76,#77,#78,#79,#80,#81,#82,#83,#84
      ,#85,#86,#87,#88,#89,#90,#91,#92,#93,#94,#95,#96,#97,#98,#99,#100
      ,#101,#102,#103,#104,#105)
    ,(#106,#107,#108,#109,#110,#111,#112,#113,#114,#115,#116,#117,#118
      ,#119,#120,#121,#122,#123,#124,#125,#126,#127,#128,#129,#130,#131
      ,#132,#133,#134,#135,#136,#137,#138,#139,#140,#141,#142,#143)
    ,(#144,#145,#146,#147,#148,#149,#150,#151,#152,#153,#154,#155,#156
      ,#157,#158,#159,#160,#161,#162,#163,#164,#165,#166,#167,#168,#169
      ,#170,#171,#172,#173,#174,#175,#176,#177,#178,#179,#180,#181)
    ,(#182,#183,#184,#185,#186,#187,#188,#189,#190,#191,#192,#193,#194
      ,#195,#196,#197,#198,#199,#200,#201,#202,#203,#204,#205,#206,#207
      ,#208,#209,#210,#211,#212,#213,#214,#215,#216,#217,#218,#219)
    ,(#220,#221,#222,#223,#224,#225,#226,#227,#228,#229,#230,#231,#232
      ,#233,#234,#235,#236,#237,#238,#239,#240,#241,#242,#243,#244,#245
      ,#246,#247,#248,#249,#250,#251,#252,#253,#254,#255,#256,#257)
    ,(#258,#259,#260,#261,#262,#263,#264,#265,#266,#267,#268,#269,#270
      ,#271,#272,#273,#274,#275,#276,#277,#278,#279,#280,#281,#282,#283
      ,#284,#285,#286,#287,#288,#289,#290,#291,#292,#293,#294,#295)
    ,(#296,#297,#298,#299,#300,#301,#302,#303,#304,#305,#306,#307,#308
      ,#309,#310,#311,#312,#313,#314,#315,#316,#317,#318,#319,#320,#321
      ,#322,#323,#324,#325,#326,#327,#328,#329,#330,#331,#332,#333
)),.UNSPECIFIED.,.T.,.F.,.F.) B_SPLINE_SURFACE_WITH_KNOTS((1,6,6,1),(11,
    9,9,9,11),(-6.28318530718,0.,6.28318530718,12.566370614359),(0.,
    7.629325651881,15.258651303762,22.887976955643,30.517302607524),
.UNSPECIFIED.) GEOMETRIC_REPRESENTATION_ITEM() RATIONAL_B_SPLINE_SURFACE
((
    (1.669078461068,1.669078461068,1.669078461068,1.669078461069
      ,1.669078461068,1.669078461069,1.669078461068,1.669078461068
      ,1.669078461068,1.669078461068,1.669078461068,1.669078461068
      ,1.669078461068,1.669078461069,1.669078461067,1.669078461069
      ,1.669078461068,1.669078461068,1.669078461068,1.669078461068
      ,1.669078461068,1.669078461069,1.669078461068,1.669078461069
      ,1.669078461068,1.669078461069,1.669078461068,1.669078461068
      ,1.669078461068,1.669078461068,1.669078461069,1.669078461068
      ,1.669078461069,1.669078461068,1.669078461069,1.669078461068
      ,1.669078461068,1.669078461068)
    ,(1.03672962321,1.03672962321,1.036729623209,1.03672962321
      ,1.036729623209,1.03672962321,1.036729623209,1.03672962321
      ,1.03672962321,1.03672962321,1.03672962321,1.03672962321
      ,1.036729623209,1.03672962321,1.036729623209,1.03672962321
      ,1.036729623209,1.03672962321,1.03672962321,1.03672962321
      ,1.036729623209,1.03672962321,1.036729623209,1.03672962321
      ,1.036729623209,1.03672962321,1.03672962321,1.03672962321
      ,1.03672962321,1.036729623209,1.03672962321,1.036729623209
      ,1.03672962321,1.036729623209,1.03672962321,1.036729623209
      ,1.03672962321,1.03672962321)
    ,(1.038346699848,1.038346699848,1.038346699847,1.038346699848
      ,1.038346699847,1.038346699848,1.038346699847,1.038346699848
      ,1.038346699847,1.038346699848,1.038346699847,1.038346699848
      ,1.038346699847,1.038346699848,1.038346699847,1.038346699848
      ,1.038346699847,1.038346699848,1.038346699847,1.038346699848
      ,1.038346699847,1.038346699848,1.038346699847,1.038346699848
      ,1.038346699847,1.038346699848,1.038346699847,1.038346699848
      ,1.038346699848,1.038346699847,1.038346699848,1.038346699847
      ,1.038346699848,1.038346699847,1.038346699848,1.038346699847
      ,1.038346699848,1.038346699848)
    ,(0.853534330196,0.853534330196,0.853534330196,0.853534330196
      ,0.853534330196,0.853534330197,0.853534330196,0.853534330196
      ,0.853534330196,0.853534330196,0.853534330196,0.853534330196
      ,0.853534330196,0.853534330196,0.853534330196,0.853534330196
      ,0.853534330196,0.853534330196,0.853534330196,0.853534330196
      ,0.853534330196,0.853534330196,0.853534330196,0.853534330197
      ,0.853534330196,0.853534330196,0.853534330196,0.853534330196
      ,0.853534330196,0.853534330196,0.853534330196,0.853534330196
      ,0.853534330196,0.853534330196,0.853534330196,0.853534330196
      ,0.853534330196,0.853534330196)
    ,(1.038346699848,1.038346699848,1.038346699847,1.038346699848
      ,1.038346699847,1.038346699848,1.038346699847,1.038346699848
      ,1.038346699847,1.038346699848,1.038346699847,1.038346699848
      ,1.038346699847,1.038346699848,1.038346699847,1.038346699848
      ,1.038346699847,1.038346699848,1.038346699847,1.038346699848
      ,1.038346699847,1.038346699848,1.038346699847,1.038346699848
      ,1.038346699847,1.038346699848,1.038346699847,1.038346699848
      ,1.038346699848,1.038346699847,1.038346699848,1.038346699847
      ,1.038346699848,1.038346699847,1.038346699848,1.038346699847
      ,1.038346699848,1.038346699848)
    ,(1.03672962321,1.03672962321,1.036729623209,1.03672962321
      ,1.036729623209,1.03672962321,1.036729623209,1.03672962321
      ,1.03672962321,1.03672962321,1.03672962321,1.03672962321
      ,1.036729623209,1.03672962321,1.036729623209,1.03672962321
      ,1.03672962321,1.03672962321,1.03672962321,1.03672962321
      ,1.036729623209,1.03672962321,1.036729623209,1.03672962321
      ,1.036729623209,1.03672962321,1.03672962321,1.03672962321
      ,1.03672962321,1.03672962321,1.03672962321,1.036729623209
      ,1.03672962321,1.036729623209,1.03672962321,1.036729623209
      ,1.03672962321,1.03672962321)
    ,(1.669078461068,1.669078461068,1.669078461068,1.669078461069
      ,1.669078461068,1.669078461069,1.669078461068,1.669078461068
      ,1.669078461068,1.669078461068,1.669078461068,1.669078461068
      ,1.669078461068,1.669078461069,1.669078461067,1.669078461069
      ,1.669078461068,1.669078461068,1.669078461068,1.669078461068
      ,1.669078461068,1.669078461069,1.669078461068,1.669078461069
      ,1.669078461068,1.669078461069,1.669078461068,1.669078461068
      ,1.669078461068,1.669078461068,1.669078461069,1.669078461068
      ,1.669078461069,1.669078461068,1.669078461069,1.669078461068
,1.669078461068,1.669078461068))) REPRESENTATION_ITEM('') SURFACE() );
#68 = CARTESIAN_POINT('',(14.6,-1.459249387992E-14,-1.7763568394E-15));
#69 = CARTESIAN_POINT('',(14.60000000001,6.880087902717,0.599999971165)
  );
#70 = CARTESIAN_POINT('',(10.997874461831,13.760387798185,1.20000008688)
  );
#71 = CARTESIAN_POINT('',(3.791017063722,18.517043286365,1.799999847062)
  );
#72 = CARTESIAN_POINT('',(-5.579961580972,19.035977322759,2.400000128088
    ));
#73 = CARTESIAN_POINT('',(-14.29581164405,14.29581164434,2.999999991527)
  );
#74 = CARTESIAN_POINT('',(-19.03597732365,5.579961579992,3.599999880126)
  );
#75 = CARTESIAN_POINT('',(-18.51704328554,-3.791017063895,4.200000139287
    ));
#76 = CARTESIAN_POINT('',(-13.76038779847,-10.99787446235,4.799999915942
    ));
#77 = CARTESIAN_POINT('',(-6.880087901971,-14.6000000001,5.400000020975)
  );
#78 = CARTESIAN_POINT('',(6.880087902353,-14.59999999995,6.599999975036)
  );
#79 = CARTESIAN_POINT('',(13.760387798738,-10.99787446187,7.2000000809)
  );
#80 = CARTESIAN_POINT('',(18.517043285671,-3.791017063698,7.799999854592
    ));
#81 = CARTESIAN_POINT('',(19.0359773235,5.57996158096,8.400000120305));
#82 = CARTESIAN_POINT('',(14.295811643669,14.295811644085,8.999999998095
    ));
#83 = CARTESIAN_POINT('',(5.579961580493,19.0359773236,9.599999875686));
#84 = CARTESIAN_POINT('',(-3.791017064183,18.5170432856,10.20000014159)
  );
#85 = CARTESIAN_POINT('',(-10.99787446224,13.760387798442,
    10.799999915117));
#86 = CARTESIAN_POINT('',(-14.60000000013,6.880087901975,11.400000021103
    ));
#87 = CARTESIAN_POINT('',(-14.59999999994,-6.880087902347,
    12.599999975016));
#88 = CARTESIAN_POINT('',(-10.99787446191,-13.76038779877,
    13.200000080743));
#89 = CARTESIAN_POINT('',(-3.791017063622,-18.51704328557,
    13.799999855092));
#90 = CARTESIAN_POINT('',(5.579961580846,-19.03597732363,14.400000119435
    ));
#91 = CARTESIAN_POINT('',(14.295811644217,-14.29581164354,
    14.999999999131));
#92 = CARTESIAN_POINT('',(19.03597732348,-5.579961580568,15.599999874797
    ));
#93 = CARTESIAN_POINT('',(18.517043285686,3.791017064212,16.200000142144
    ));
#94 = CARTESIAN_POINT('',(13.760387798396,10.997874462235,
    16.799999914871));
#95 = CARTESIAN_POINT('',(6.880087901993,14.600000000134,17.400000021175
    ));
#96 = CARTESIAN_POINT('',(-6.880087902378,14.599999999936,
    18.599999974925));
#97 = CARTESIAN_POINT('',(-13.76038779862,10.997874461956,19.20000008101
    ));
#98 = CARTESIAN_POINT('',(-18.51704328591,3.791017063541,19.799999854823
    ));
#99 = CARTESIAN_POINT('',(-19.03597732314,-5.579961580715,
    20.400000119025));
#100 = CARTESIAN_POINT('',(-14.29581164402,-14.29581164442,
    21.000000001144));
#101 = CARTESIAN_POINT('',(-5.579961580269,-19.03597732316,
    21.599999870835));
#102 = CARTESIAN_POINT('',(3.791017064122,-18.51704328609,
    22.200000147273));
#103 = CARTESIAN_POINT('',(10.997874462203,-13.76038779798,
    22.799999910021));
#104 = CARTESIAN_POINT('',(14.600000000189,-6.88008790231,
    23.400000024649));
#105 = CARTESIAN_POINT('',(14.6,3.727026812173E-10,23.999999996157));
#106 = CARTESIAN_POINT('',(14.6,0.259134530419,-2.645809195428));
#107 = CARTESIAN_POINT('',(14.477885683472,7.139222431933,
    -2.045809224407));
#108 = CARTESIAN_POINT('',(10.753642317932,13.955588433818,
    -1.445809107825));
#109 = CARTESIAN_POINT('',(3.46235881499,18.584329710007,-0.845809350282
    ));
#110 = CARTESIAN_POINT('',(-5.91782951791,18.936939194281,
    -0.245809064047));
#111 = CARTESIAN_POINT('',(-14.54954761177,14.042075681729,
    0.354190792206));
#112 = CARTESIAN_POINT('',(-19.13501543583,5.242093627018,0.954190687903
    ));
#113 = CARTESIAN_POINT('',(-18.44975685774,-4.119675298009,
    1.554190942078));
#114 = CARTESIAN_POINT('',(-13.56518715505,-11.24210661141,
    2.154190721105));
#115 = CARTESIAN_POINT('',(-6.620953370118,-14.72211430372,
    2.754190825495));
#116 = CARTESIAN_POINT('',(7.139222431455,-14.47788568979,3.954190779561
    ));
#117 = CARTESIAN_POINT('',(13.955588434572,-10.75364230813,
    4.554190886045));
#118 = CARTESIAN_POINT('',(18.584329708966,-3.462358827331,
    5.154190657433));
#119 = CARTESIAN_POINT('',(18.936939195561,5.917829530566,5.754190927983
    ));
#120 = CARTESIAN_POINT('',(14.042075680387,14.549547601282,
    6.354190798927));
#121 = CARTESIAN_POINT('',(5.242093628134,19.135015442729,6.954190683365
    ));
#122 = CARTESIAN_POINT('',(-4.119675298681,18.449756854278,
    7.554190944429));
#123 = CARTESIAN_POINT('',(-11.24210661116,13.565187156278,
    8.154190720264));
#124 = CARTESIAN_POINT('',(-14.72211430373,6.620953369906,8.754190825626
    ));
#125 = CARTESIAN_POINT('',(-14.47788568986,-7.139222431342,9.95419077954
    ));
#126 = CARTESIAN_POINT('',(-10.75364230767,-13.95558843486,
    10.554190885884));
#127 = CARTESIAN_POINT('',(-3.462358828382,-18.58432970827,
    11.154190657943));
#128 = CARTESIAN_POINT('',(5.91782953209,-18.93693919684,11.754190927102
    ));
#129 = CARTESIAN_POINT('',(14.549547599764,-14.04207567861,
    12.354190799968));
#130 = CARTESIAN_POINT('',(19.135015443799,-5.242093629922,
    12.954190682478));
#131 = CARTESIAN_POINT('',(18.449756853733,4.119675300003,
    13.554190944981));
#132 = CARTESIAN_POINT('',(13.565187156497,11.242106610455,
    14.154190720018));
#133 = CARTESIAN_POINT('',(6.620953369815,14.722114304008,14.7541908257)
  );
#134 = CARTESIAN_POINT('',(-7.139222431165,14.47788568944,
    15.954190779442));
#135 = CARTESIAN_POINT('',(-13.95558843564,10.753642309516,
    16.554190886191));
#136 = CARTESIAN_POINT('',(-18.58432970646,3.462358824486,
    17.154190657581));
#137 = CARTESIAN_POINT('',(-18.9369392001,-5.917829526772,
    17.754190926839));
#138 = CARTESIAN_POINT('',(-14.04207567345,-14.54954760472,
    18.354190801804));
#139 = CARTESIAN_POINT('',(-5.24209363712,-19.13501544061,
    18.954190678695));
#140 = CARTESIAN_POINT('',(4.119675308396,-18.44975685513,
    19.554190949946));
#141 = CARTESIAN_POINT('',(11.242106602629,-13.56518715603,
    20.154190715302));
#142 = CARTESIAN_POINT('',(14.722114309689,-6.620953370002,
    20.754190829082));
#143 = CARTESIAN_POINT('',(14.599999993585,0.259134530785,
    21.354190800729));
#144 = CARTESIAN_POINT('',(11.312722895123,0.296341838749,
    -3.025702366584));
#145 = CARTESIAN_POINT('',(11.173075040979,5.627336917413,
    -2.425702336335));
#146 = CARTESIAN_POINT('',(8.242337700933,10.885382442237,
    -1.825702457405));
#147 = CARTESIAN_POINT('',(2.561598918268,14.424768289025,-1.22570220743
    ));
#148 = CARTESIAN_POINT('',(-4.709979818873,14.636654904581,
    -0.625702498003));
#149 = CARTESIAN_POINT('',(-11.36719272283,10.786856459629,
    -2.57023619721E-02));
#150 = CARTESIAN_POINT('',(-14.86317152129,3.937219756719,0.574297763386
    ));
#151 = CARTESIAN_POINT('',(-14.27087306732,-3.313294860993,
    1.174297484556));
#152 = CARTESIAN_POINT('',(-10.43892618349,-8.800937152546,
    1.774297722713));
#153 = CARTESIAN_POINT('',(-5.034653240433,-11.45237073433,
    2.374297611242));
#154 = CARTESIAN_POINT('',(5.627336917655,-11.17307504834,3.574297659684
    ));
#155 = CARTESIAN_POINT('',(10.885382441959,-8.242337689511,
    4.174297548768));
#156 = CARTESIAN_POINT('',(14.424768289155,-2.5615989327,4.774297784764)
  );
#157 = CARTESIAN_POINT('',(14.636654904772,4.709979833803,5.374297510101
    ));
#158 = CARTESIAN_POINT('',(10.786856459141,11.367192710281,
    5.974297631167));
#159 = CARTESIAN_POINT('',(3.937219757263,14.86317152971,6.574297768026)
  );
#160 = CARTESIAN_POINT('',(-3.313294861348,14.270873063001,
    7.174297482157));
#161 = CARTESIAN_POINT('',(-8.80093715243,10.438926185041,7.774297723565
    ));
#162 = CARTESIAN_POINT('',(-11.45237073431,5.034653240166,8.374297611113
    ));
#163 = CARTESIAN_POINT('',(-11.17307504844,-5.627336917527,
    9.574297659695));
#164 = CARTESIAN_POINT('',(-8.242337688943,-10.88538244223,
    10.174297548994));
#165 = CARTESIAN_POINT('',(-2.561598933995,-14.42476828851,
    10.774297784062));
#166 = CARTESIAN_POINT('',(4.709979835685,-14.63665490602,
    11.374297511339));
#167 = CARTESIAN_POINT('',(11.367192708383,-10.78685645733,
    11.974297629667));
#168 = CARTESIAN_POINT('',(14.863171531079,-3.937219759152,
    12.574297769334));
#169 = CARTESIAN_POINT('',(14.270873062275,3.313294862782,
    13.174297481333));
#170 = CARTESIAN_POINT('',(10.43892618535,8.800937151649,13.774297723931
    ));
#171 = CARTESIAN_POINT('',(5.034653240038,11.45237073462,14.374297611008
    ));
#172 = CARTESIAN_POINT('',(-5.627336917281,11.173075047981,
    15.574297659829));
#173 = CARTESIAN_POINT('',(-10.88538244331,8.242337690968,
    16.174297548508));
#174 = CARTESIAN_POINT('',(-14.42476828604,2.561598929684,
    16.774297784872));
#175 = CARTESIAN_POINT('',(-14.63665491026,-4.709979829821,
    17.374297510905));
#176 = CARTESIAN_POINT('',(-10.786856451,-11.36719271369,17.974297628514
    ));
#177 = CARTESIAN_POINT('',(-3.937219767562,-14.86317152804,
    18.574297772776));
#178 = CARTESIAN_POINT('',(3.313294872321,-14.27087306302,
    19.174297476269));
#179 = CARTESIAN_POINT('',(8.800937142858,-10.43892618571,
    19.774297728995));
#180 = CARTESIAN_POINT('',(11.452370740978,-5.034653239554,
    20.374297607286));
#181 = CARTESIAN_POINT('',(11.312722887787,0.296341838349,
    20.974297637468));
#182 = CARTESIAN_POINT('',(8.601412926386,-8.139322549283E-15,
    -5.329070518201E-15));
#183 = CARTESIAN_POINT('',(8.601412926327,4.05332037279,0.600000079282)
  );
#184 = CARTESIAN_POINT('',(6.479264374535,8.106765448889,1.199999761107)
  );
#185 = CARTESIAN_POINT('',(2.233431621765,10.909091770546,1.800000420567
    ));
#186 = CARTESIAN_POINT('',(-3.28736642691,11.214814735432,2.399999647667
    ));
#187 = CARTESIAN_POINT('',(-8.422204458503,8.422204457528,3.000000023533
    ));
#188 = CARTESIAN_POINT('',(-11.21481473283,3.287366429783,3.600000329349
    ));
#189 = CARTESIAN_POINT('',(-10.90909177285,-2.233431621409,
    4.199999617199));
#190 = CARTESIAN_POINT('',(-8.106765448101,-6.479264373037,
    4.800000231044));
#191 = CARTESIAN_POINT('',(-4.053320374831,-8.601412926072,
    5.399999942346));
#192 = CARTESIAN_POINT('',(4.053320373769,-8.601412926514,6.600000068624
    ));
#193 = CARTESIAN_POINT('',(8.106765447506,-6.479264374203,7.199999777614
    ));
#194 = CARTESIAN_POINT('',(10.909091772087,-2.233431622314,
    7.800000399724));
#195 = CARTESIAN_POINT('',(11.214814734034,3.287366427721,8.399999669266
    ));
#196 = CARTESIAN_POINT('',(8.4222044586,8.42220445753,9.000000005279));
#197 = CARTESIAN_POINT('',(3.287366429072,11.214814733714,9.600000341681
    ));
#198 = CARTESIAN_POINT('',(-2.233431621016,10.909091772286,
    10.199999610822));
#199 = CARTESIAN_POINT('',(-6.479264373196,8.106765448332,
    10.800000233313));
#200 = CARTESIAN_POINT('',(-8.60141292604,4.053320374794,11.399999942));
#201 = CARTESIAN_POINT('',(-8.601412926531,-4.053320373764,
    12.600000068661));
#202 = CARTESIAN_POINT('',(-6.479264374166,-8.10676544746,
    13.199999778166));
#203 = CARTESIAN_POINT('',(-2.233431622386,-10.90909177222,
    13.800000398008));
#204 = CARTESIAN_POINT('',(3.28736642783,-11.21481473381,14.399999672268
    ));
#205 = CARTESIAN_POINT('',(8.422204457404,-8.422204458839,
    15.000000001673));
#206 = CARTESIAN_POINT('',(11.214814733826,-3.287366428886,
    15.600000344801));
#207 = CARTESIAN_POINT('',(10.909091772207,2.233431620909,
    16.199999608864));
#208 = CARTESIAN_POINT('',(8.106765448378,6.479264373242,16.800000234185
    ));
#209 = CARTESIAN_POINT('',(4.053320374772,8.601412926024,17.399999941744
    ));
#210 = CARTESIAN_POINT('',(-4.053320373725,8.601412926558,
    18.600000068994));
#211 = CARTESIAN_POINT('',(-8.106765447611,6.47926437407,19.199999776977
    ));
#212 = CARTESIAN_POINT('',(-10.90909177194,2.233431622557,19.8000003999)
  );
#213 = CARTESIAN_POINT('',(-11.21481473412,-3.287366428078,
    20.399999671512));
#214 = CARTESIAN_POINT('',(-8.422204458669,-8.422204456987,
    20.99999999827));
#215 = CARTESIAN_POINT('',(-3.287366428826,-11.21481473455,
    21.600000353981));
#216 = CARTESIAN_POINT('',(2.233431620683,-10.90909177115,
    22.199999595732));
#217 = CARTESIAN_POINT('',(6.479264373494,-8.106765449494,
    22.800000247147));
#218 = CARTESIAN_POINT('',(8.601412925842,-4.053320373898,23.39999993228
    ));
#219 = CARTESIAN_POINT('',(8.601412926386,-1.024722931509E-09,
    24.000000010565));
#220 = CARTESIAN_POINT('',(11.312722895123,-0.296341838749,
    3.025702366584));
#221 = CARTESIAN_POINT('',(11.452370749212,5.034653242666,3.625702397163
    ));
#222 = CARTESIAN_POINT('',(8.800937147234,10.438926192701,4.225702274112
    ));
#223 = CARTESIAN_POINT('',(3.313294877829,14.270873071172,4.825702530125
    ));
#224 = CARTESIAN_POINT('',(-3.937219773934,14.863171540971,5.42570222763
    ));
#225 = CARTESIAN_POINT('',(-10.78685645417,11.367192716579,
    6.025702380105));
#226 = CARTESIAN_POINT('',(-14.63665492222,4.709979838351,6.625702489222
    ));
#227 = CARTESIAN_POINT('',(-14.42476829466,-2.56159893487,7.2257022218)
  );
#228 = CARTESIAN_POINT('',(-10.88538245083,-8.242337694454,
    7.825702454528));
#229 = CARTESIAN_POINT('',(-5.627336921209,-11.17307505566,
    8.425702344529));
#230 = CARTESIAN_POINT('',(5.034653243168,-11.452370742,9.625702392961)
  );
#231 = CARTESIAN_POINT('',(10.438926191961,-8.800937158338,
    10.225702280625));
#232 = CARTESIAN_POINT('',(14.270873072103,-3.313294863973,
    10.825702521894));
#233 = CARTESIAN_POINT('',(14.863171539916,3.937219759877,
    11.425702236163));
#234 = CARTESIAN_POINT('',(11.367192717638,10.786856465703,
    12.025702372896));
#235 = CARTESIAN_POINT('',(4.709979837478,14.636654914716,
    12.625702494085));
#236 = CARTESIAN_POINT('',(-2.561598934342,14.424768298414,
    13.225702219292));
#237 = CARTESIAN_POINT('',(-8.242337694643,10.885382449518,
    13.825702455417));
#238 = CARTESIAN_POINT('',(-11.17307505566,5.627336921438,
    14.425702344395));
#239 = CARTESIAN_POINT('',(-11.4523707419,-5.034653243286,
    15.625702392973));
#240 = CARTESIAN_POINT('',(-8.800937158897,-10.43892619167,
    16.225702280862));
#241 = CARTESIAN_POINT('',(-3.313294862692,-14.27087307281,
    16.825702521168));
#242 = CARTESIAN_POINT('',(3.937219758015,-14.86317153855,
    17.425702237429));
#243 = CARTESIAN_POINT('',(10.786856467578,-11.36719271958,
    18.02570237138));
#244 = CARTESIAN_POINT('',(14.636654913364,-4.709979835455,
    18.625702495393));
#245 = CARTESIAN_POINT('',(14.424768299129,2.56159893282,19.225702218472
    ));
#246 = CARTESIAN_POINT('',(10.885382449218,8.242337695466,
    19.825702455784));
#247 = CARTESIAN_POINT('',(5.62733692156,11.17307505535,20.425702344284)
  );
#248 = CARTESIAN_POINT('',(-5.034653243517,11.452370742395,
    21.625702393123));
#249 = CARTESIAN_POINT('',(-10.43892619061,8.800937156803,
    22.225702280286));
#250 = CARTESIAN_POINT('',(-14.27087307527,3.313294867114,
    22.825702522189));
#251 = CARTESIAN_POINT('',(-14.8631715342,-3.937219764029,
    23.425702236662));
#252 = CARTESIAN_POINT('',(-11.36719272616,-10.78685646199,
    24.025702370626));
#253 = CARTESIAN_POINT('',(-4.709979826708,-14.63665491691,
    24.625702498429));
#254 = CARTESIAN_POINT('',(2.561598922951,-14.42476829759,25.22570221378
    ));
#255 = CARTESIAN_POINT('',(8.242337704504,-10.8853824497,25.825702460542
    ));
#256 = CARTESIAN_POINT('',(11.173075048842,-5.627336921373,
    26.425702340774));
#257 = CARTESIAN_POINT('',(11.312722902459,-0.296341839135,
    27.025702370637));
#258 = CARTESIAN_POINT('',(14.6,-0.259134530419,2.645809195428));
#259 = CARTESIAN_POINT('',(14.722114316548,6.620953373501,3.245809166736
    ));
#260 = CARTESIAN_POINT('',(11.24210660573,13.565187162553,3.845809281586
    ));
#261 = CARTESIAN_POINT('',(4.119675312455,18.44975686272,4.445809044406)
  );
#262 = CARTESIAN_POINT('',(-5.242093644037,19.135015451244,
    5.045809320223));
#263 = CARTESIAN_POINT('',(-14.04207567632,14.549547606945,
    5.645809190848));
#264 = CARTESIAN_POINT('',(-18.93693921149,5.917829532971,6.245809072349
    ));
#265 = CARTESIAN_POINT('',(-18.58432971333,-3.462358829784,
    6.845809336495));
#266 = CARTESIAN_POINT('',(-13.95558844188,-10.7536423133,7.445809110778
    ));
#267 = CARTESIAN_POINT('',(-7.139222433823,-14.47788569649,
    8.045809216454));
#268 = CARTESIAN_POINT('',(6.62095337325,-14.72211431012,9.245809170511)
  );
#269 = CARTESIAN_POINT('',(13.565187162905,-11.24210661563,
    9.845809275754));
#270 = CARTESIAN_POINT('',(18.449756862371,-4.119675300058,
    10.445809051752));
#271 = CARTESIAN_POINT('',(19.135015451447,5.242093631348,
    11.045809312625));
#272 = CARTESIAN_POINT('',(14.549547606944,14.042075686889,
    11.645809197266));
#273 = CARTESIAN_POINT('',(5.917829532854,18.936939204473,
    12.245809068005));
#274 = CARTESIAN_POINT('',(-3.462358829683,18.584329716923,
    12.845809338751));
#275 = CARTESIAN_POINT('',(-10.75364231332,13.955588440606,
    13.445809109969));
#276 = CARTESIAN_POINT('',(-14.47788569652,7.139222434044,
    14.045809216581));
#277 = CARTESIAN_POINT('',(-14.72211431002,-6.620953373353,
    15.245809170491));
#278 = CARTESIAN_POINT('',(-11.24210661615,-13.56518716269,
    15.845809275601));
#279 = CARTESIAN_POINT('',(-4.119675298861,-18.44975686287,
    16.445809052242));
#280 = CARTESIAN_POINT('',(5.242093629602,-19.13501545043,
    17.045809311766));
#281 = CARTESIAN_POINT('',(14.042075688668,-14.54954760846,
    17.645809198295));
#282 = CARTESIAN_POINT('',(18.936939203164,-5.917829531217,
    18.245809067116));
#283 = CARTESIAN_POINT('',(18.584329717637,3.46235882842,18.845809339307
    ));
#284 = CARTESIAN_POINT('',(13.955588440295,10.753642314016,
    19.445809109724));
#285 = CARTESIAN_POINT('',(7.139222434172,14.477885696259,
    20.045809216649));
#286 = CARTESIAN_POINT('',(-6.620953373592,14.722114310432,
    21.245809170408));
#287 = CARTESIAN_POINT('',(-13.56518716161,11.242106614396,
    21.84580927583));
#288 = CARTESIAN_POINT('',(-18.44975686536,4.119675302597,
    22.445809052064));
#289 = CARTESIAN_POINT('',(-19.13501544618,-5.242093634664,
    23.045809311214));
#290 = CARTESIAN_POINT('',(-14.54954761458,-14.04207568411,
    23.64580920048));
#291 = CARTESIAN_POINT('',(-5.917829523416,-18.93693920573,
    24.245809062979));
#292 = CARTESIAN_POINT('',(3.462358819844,-18.58432971704,
    24.845809344598));
#293 = CARTESIAN_POINT('',(10.753642321779,-13.95558843993,
    25.44580910474));
#294 = CARTESIAN_POINT('',(14.477885690688,-7.139222434618,
    26.045809220215));
#295 = CARTESIAN_POINT('',(14.600000006415,-0.25913453004,
    26.645809191585));
#296 = CARTESIAN_POINT('',(14.6,-1.459249387992E-14,-1.7763568394E-15));
#297 = CARTESIAN_POINT('',(14.60000000001,6.880087902717,0.599999971165)
  );
#298 = CARTESIAN_POINT('',(10.997874461831,13.760387798185,1.20000008688
    ));
#299 = CARTESIAN_POINT('',(3.791017063722,18.517043286365,1.799999847062
    ));
#300 = CARTESIAN_POINT('',(-5.579961580972,19.035977322759,
    2.400000128088));
#301 = CARTESIAN_POINT('',(-14.29581164405,14.29581164434,2.999999991527
    ));
#302 = CARTESIAN_POINT('',(-19.03597732365,5.579961579992,3.599999880126
    ));
#303 = CARTESIAN_POINT('',(-18.51704328554,-3.791017063895,
    4.200000139287));
#304 = CARTESIAN_POINT('',(-13.76038779847,-10.99787446235,
    4.799999915942));
#305 = CARTESIAN_POINT('',(-6.880087901971,-14.6000000001,5.400000020975
    ));
#306 = CARTESIAN_POINT('',(6.880087902353,-14.59999999995,6.599999975036
    ));
#307 = CARTESIAN_POINT('',(13.760387798738,-10.99787446187,7.2000000809)
  );
#308 = CARTESIAN_POINT('',(18.517043285671,-3.791017063698,
    7.799999854592));
#309 = CARTESIAN_POINT('',(19.0359773235,5.57996158096,8.400000120305));
#310 = CARTESIAN_POINT('',(14.295811643669,14.295811644085,
    8.999999998095));
#311 = CARTESIAN_POINT('',(5.579961580493,19.0359773236,9.599999875686)
  );
#312 = CARTESIAN_POINT('',(-3.791017064183,18.5170432856,10.20000014159)
  );
#313 = CARTESIAN_POINT('',(-10.99787446224,13.760387798442,
    10.799999915117));
#314 = CARTESIAN_POINT('',(-14.60000000013,6.880087901975,
    11.400000021103));
#315 = CARTESIAN_POINT('',(-14.59999999994,-6.880087902347,
    12.599999975016));
#316 = CARTESIAN_POINT('',(-10.99787446191,-13.76038779877,
    13.200000080743));
#317 = CARTESIAN_POINT('',(-3.791017063622,-18.51704328557,
    13.799999855092));
#318 = CARTESIAN_POINT('',(5.579961580846,-19.03597732363,
    14.400000119435));
#319 = CARTESIAN_POINT('',(14.295811644217,-14.29581164354,
    14.999999999131));
#320 = CARTESIAN_POINT('',(19.03597732348,-5.579961580568,
    15.599999874797));
#321 = CARTESIAN_POINT('',(18.517043285686,3.791017064212,
    16.200000142144));
#322 = CARTESIAN_POINT('',(13.760387798396,10.997874462235,
    16.799999914871));
#323 = CARTESIAN_POINT('',(6.880087901993,14.600000000134,
    17.400000021175));
#324 = CARTESIAN_POINT('',(-6.880087902378,14.599999999936,
    18.599999974925));
#325 = CARTESIAN_POINT('',(-13.76038779862,10.997874461956,
    19.20000008101));
#326 = CARTESIAN_POINT('',(-18.51704328591,3.791017063541,
    19.799999854823));
#327 = CARTESIAN_POINT('',(-19.03597732314,-5.579961580715,
    20.400000119025));
#328 = CARTESIAN_POINT('',(-14.29581164402,-14.29581164442,
    21.000000001144));
#329 = CARTESIAN_POINT('',(-5.579961580269,-19.03597732316,
    21.599999870835));
#330 = CARTESIAN_POINT('',(3.791017064122,-18.51704328609,
    22.200000147273));
#331 = CARTESIAN_POINT('',(10.997874462203,-13.76038779798,
    22.799999910021));
#332 = CARTESIAN_POINT('',(14.600000000189,-6.88008790231,
    23.400000024649));
#333 = CARTESIAN_POINT('',(14.6,3.727026812173E-10,23.999999996157));
#334 = DEFINITIONAL_REPRESENTATION('',(#335),#338);
#335 = B_SPLINE_CURVE_WITH_KNOTS('',1,(#336,#337),.UNSPECIFIED.,.F.,.F.,
  (2,2),(0.,30.517302607524),.PIECEWISE_BEZIER_KNOTS.);
#336 = CARTESIAN_POINT('',(6.28318530718,0.));
#337 = CARTESIAN_POINT('',(6.28318530718,30.517302607524));
#338 = ( GEOMETRIC_REPRESENTATION_CONTEXT(2) 
PARAMETRIC_REPRESENTATION_CONTEXT() REPRESENTATION_CONTEXT('2D SPACE',''
  ) );
#339 = PCURVE('',#67,#340);
#340 = DEFINITIONAL_REPRESENTATION('',(#341),#345);
#341 = LINE('',#342,#343);
#342 = CARTESIAN_POINT('',(0.,0.));
#343 = VECTOR('',#344,1.);
#344 = DIRECTION('',(0.,1.));
#345 = ( GEOMETRIC_REPRESENTATION_CONTEXT(2) 
PARAMETRIC_REPRESENTATION_CONTEXT() REPRESENTATION_CONTEXT('2D SPACE',''
  ) );
#346 = ORIENTED_EDGE('',*,*,#347,.F.);
#347 = EDGE_CURVE('',#24,#24,#348,.T.);
#348 = SURFACE_CURVE('',#349,(#357,#364),.PCURVE_S1.);
#349 = ( BOUNDED_CURVE() B_SPLINE_CURVE(6,(#350,#351,#352,#353,#354,#355
,#356),.UNSPECIFIED.,.T.,.F.) B_SPLINE_CURVE_WITH_KNOTS((1,6,6,1),(
    -6.28318530718,0.,6.28318530718,12.566370614359),.UNSPECIFIED.) 
CURVE() GEOMETRIC_REPRESENTATION_ITEM() RATIONAL_B_SPLINE_CURVE((
    1.669078461068,1.03672962321,1.038346699848,0.853534330196,
1.038346699848,1.03672962321,1.669078461068)) REPRESENTATION_ITEM('') );
#350 = CARTESIAN_POINT('',(14.6,3.727026812173E-10,23.999999996157));
#351 = CARTESIAN_POINT('',(14.599999993585,0.259134530785,
    21.354190800729));
#352 = CARTESIAN_POINT('',(11.312722887787,0.296341838349,
    20.974297637468));
#353 = CARTESIAN_POINT('',(8.601412926386,-1.024722931509E-09,
    24.000000010565));
#354 = CARTESIAN_POINT('',(11.312722902459,-0.296341839135,
    27.025702370637));
#355 = CARTESIAN_POINT('',(14.600000006415,-0.25913453004,
    26.645809191585));
#356 = CARTESIAN_POINT('',(14.6,3.727026812173E-10,23.999999996157));
#357 = PCURVE('',#67,#358);
#358 = DEFINITIONAL_REPRESENTATION('',(#359),#363);
#359 = LINE('',#360,#361);
#360 = CARTESIAN_POINT('',(0.,30.517302607524));
#361 = VECTOR('',#362,1.);
#362 = DIRECTION('',(1.,0.));
#363 = ( GEOMETRIC_REPRESENTATION_CONTEXT(2) 
PARAMETRIC_REPRESENTATION_CONTEXT() REPRESENTATION_CONTEXT('2D SPACE',''
  ) );
#364 = PCURVE('',#365,#370);
#365 = PLANE('',#366);
#366 = AXIS2_PLACEMENT_3D('',#367,#368,#369);
#367 = CARTESIAN_POINT('',(13.000253477176,2.280191116113E-14,
    23.999999999999));
#368 = DIRECTION('',(2.270754388334E-12,0.995237963707,
    9.747510244492E-02));
#369 = DIRECTION('',(-2.524354896707E-29,-9.747510244492E-02,
    0.995237963707));
#370 = DEFINITIONAL_REPRESENTATION('',(#371),#379);
#371 = ( BOUNDED_CURVE() B_SPLINE_CURVE(6,(#372,#373,#374,#375,#376,#377
,#378),.UNSPECIFIED.,.T.,.F.) B_SPLINE_CURVE_WITH_KNOTS((1,6,6,1),(
    -6.28318530718,0.,6.28318530718,12.566370614359),.UNSPECIFIED.) 
CURVE() GEOMETRIC_REPRESENTATION_ITEM() RATIONAL_B_SPLINE_CURVE((
    1.669078461068,1.03672962321,1.038346699848,0.853534330196,
1.038346699848,1.03672962321,1.669078461068)) REPRESENTATION_ITEM('') );
#372 = CARTESIAN_POINT('',(-3.860399999667E-09,1.599746522824));
#373 = CARTESIAN_POINT('',(-2.658468924774,1.599746516409));
#374 = CARTESIAN_POINT('',(-3.040179809121,-1.687530589389));
#375 = CARTESIAN_POINT('',(1.061499332877E-08,-4.398840550789));
#376 = CARTESIAN_POINT('',(3.040179817265,-1.687530574716));
#377 = CARTESIAN_POINT('',(2.658468917053,1.599746529239));
#378 = CARTESIAN_POINT('',(-3.860399999667E-09,1.599746522824));
#379 = ( GEOMETRIC_REPRESENTATION_CONTEXT(2) 
PARAMETRIC_REPRESENTATION_CONTEXT() REPRESENTATION_CONTEXT('2D SPACE',''
  ) );
#380 = ORIENTED_EDGE('',*,*,#21,.F.);
#381 = ORIENTED_EDGE('',*,*,#382,.T.);
#382 = EDGE_CURVE('',#22,#22,#383,.T.);
#383 = SURFACE_CURVE('',#384,(#392,#399),.PCURVE_S1.);
#384 = ( BOUNDED_CURVE() B_SPLINE_CURVE(6,(#385,#386,#387,#388,#389,#390
,#391),.UNSPECIFIED.,.T.,.F.) B_SPLINE_CURVE_WITH_KNOTS((1,6,6,1),(
    -6.28318530718,0.,6.28318530718,12.566370614359),.UNSPECIFIED.) 
CURVE() GEOMETRIC_REPRESENTATION_ITEM() RATIONAL_B_SPLINE_CURVE((
    1.669078461068,1.03672962321,1.038346699848,0.853534330196,
1.038346699848,1.03672962321,1.669078461068)) REPRESENTATION_ITEM('') );
#385 = CARTESIAN_POINT('',(14.6,-1.459249387992E-14,-1.7763568394E-15));
#386 = CARTESIAN_POINT('',(14.6,0.259134530419,-2.645809195428));
#387 = CARTESIAN_POINT('',(11.312722895123,0.296341838749,
    -3.025702366584));
#388 = CARTESIAN_POINT('',(8.601412926386,-8.139322549283E-15,
    -5.329070518201E-15));
#389 = CARTESIAN_POINT('',(11.312722895123,-0.296341838749,
    3.025702366584));
#390 = CARTESIAN_POINT('',(14.6,-0.259134530419,2.645809195428));
#391 = CARTESIAN_POINT('',(14.6,-1.459249387992E-14,-1.7763568394E-15));
#392 = PCURVE('',#67,#393);
#393 = DEFINITIONAL_REPRESENTATION('',(#394),#398);
#394 = LINE('',#395,#396);
#395 = CARTESIAN_POINT('',(0.,0.));
#396 = VECTOR('',#397,1.);
#397 = DIRECTION('',(1.,0.));
#398 = ( GEOMETRIC_REPRESENTATION_CONTEXT(2) 
PARAMETRIC_REPRESENTATION_CONTEXT() REPRESENTATION_CONTEXT('2D SPACE',''
  ) );
#399 = PCURVE('',#400,#405);
#400 = PLANE('',#401);
#401 = AXIS2_PLACEMENT_3D('',#402,#403,#404);
#402 = CARTESIAN_POINT('',(13.000253477176,-1.373855421315E-14,
    3.136648335625E-15));
#403 = DIRECTION('',(1.13484368716E-15,0.995237963707,9.747510244715E-02
    ));
#404 = DIRECTION('',(0.,-9.747510244715E-02,0.995237963707));
#405 = DEFINITIONAL_REPRESENTATION('',(#406),#414);
#406 = ( BOUNDED_CURVE() B_SPLINE_CURVE(6,(#407,#408,#409,#410,#411,#412
,#413),.UNSPECIFIED.,.T.,.F.) B_SPLINE_CURVE_WITH_KNOTS((1,6,6,1),(
    -6.28318530718,0.,6.28318530718,12.566370614359),.UNSPECIFIED.) 
CURVE() GEOMETRIC_REPRESENTATION_ITEM() RATIONAL_B_SPLINE_CURVE((
    1.669078461068,1.03672962321,1.038346699848,0.853534330196,
1.038346699848,1.03672962321,1.669078461068)) REPRESENTATION_ITEM('') );
#407 = CARTESIAN_POINT('',(-4.80637140957E-15,1.599746522824));
#408 = CARTESIAN_POINT('',(-2.658468920914,1.599746522824));
#409 = CARTESIAN_POINT('',(-3.040179813193,-1.687530582053));
#410 = CARTESIAN_POINT('',(-8.971190473455E-15,-4.398840550789));
#411 = CARTESIAN_POINT('',(3.040179813193,-1.687530582053));
#412 = CARTESIAN_POINT('',(2.658468920914,1.599746522824));
#413 = CARTESIAN_POINT('',(-4.80637140957E-15,1.599746522824));
#414 = ( GEOMETRIC_REPRESENTATION_CONTEXT(2) 
PARAMETRIC_REPRESENTATION_CONTEXT() REPRESENTATION_CONTEXT('2D SPACE',''
  ) );
#415 = ADVANCED_FACE('',(#416),#400,.F.);
#416 = FACE_BOUND('',#417,.F.);
#417 = EDGE_LOOP('',(#418));
#418 = ORIENTED_EDGE('',*,*,#382,.T.);
#419 = ADVANCED_FACE('',(#420),#365,.T.);
#420 = FACE_BOUND('',#421,.T.);
#421 = EDGE_LOOP('',(#422));
#422 = ORIENTED_EDGE('',*,*,#347,.T.);
#423 = ( GEOMETRIC_REPRESENTATION_CONTEXT(3) 
GLOBAL_UNCERTAINTY_ASSIGNED_CONTEXT((#427)) GLOBAL_UNIT_ASSIGNED_CONTEXT
((#424,#425,#426)) REPRESENTATION_CONTEXT('Context #1',
  '3D Context with UNIT and UNCERTAINTY') );
#424 = ( LENGTH_UNIT() NAMED_UNIT(*) SI_UNIT(.MILLI.,.METRE.) );
#425 = ( NAMED_UNIT(*) PLANE_ANGLE_UNIT() SI_UNIT($,.RADIAN.) );
#426 = ( NAMED_UNIT(*) SI_UNIT($,.STERADIAN.) SOLID_ANGLE_UNIT() );
#427 = UNCERTAINTY_MEASURE_WITH_UNIT(LENGTH_MEASURE(5.E-06),#424,
  'distance_accuracy_value','confusion accuracy');
#428 = PRODUCT_RELATED_PRODUCT_CATEGORY('part',$,(#7));
ENDSEC;
END-ISO-10303-21;
