<?xml version="1.0" encoding="utf-8" standalone="no"?>
<!DOCTYPE svg PUBLIC "-//W3C//DTD SVG 1.1//EN"
  "http://www.w3.org/Graphics/SVG/1.1/DTD/svg11.dtd">
<svg xmlns:xlink="http://www.w3.org/1999/xlink" width="641.99952pt" height="454.79952pt" viewBox="0 0 641.99952 454.79952" xmlns="http://www.w3.org/2000/svg" version="1.1">
 <metadata>
  <rdf:RDF xmlns:dc="http://purl.org/dc/elements/1.1/" xmlns:cc="http://creativecommons.org/ns#" xmlns:rdf="http://www.w3.org/1999/02/22-rdf-syntax-ns#">
   <cc:Work>
    <dc:type rdf:resource="http://purl.org/dc/dcmitype/StillImage"/>
    <dc:date>2026-08-28T19:38:18.351743</dc:date>
    <dc:format>image/svg+xml</dc:format>
    <dc:creator>
     <cc:Agent>
      <dc:title>Matplotlib v3.10.5, https://matplotlib.org/</dc:title>
     </cc:Agent>
    </dc:creator>
   </cc:Work>
  </rdf:RDF>
 </metadata>
 <defs>
  <style type="text/css">*{stroke-linejoin: round; stroke-linecap: butt}</style>
 </defs>
 <g id="figure_1">
  <g id="patch_1">
   <path d="M 0 454.79952 
L 641.99952 454.79952 
L 641.99952 0 
L 0 0 
z
" style="fill: #f8fafc"/>
  </g>
  <g id="axes_1">
   <g id="line2d_1">
    <path d="M 227.92356 256.10971 
L 347.904599 256.10971 
" clip-path="url(#pe3ee0f73ae)" style="fill: none; stroke: #64748b; stroke-width: 1.2; stroke-linecap: square"/>
   </g>
   <g id="line2d_2">
    <path d="M 227.92356 256.10971 
L 263.917872 64.140047 
" clip-path="url(#pe3ee0f73ae)" style="fill: none; stroke: #64748b; stroke-width: 1.2; stroke-linecap: square"/>
   </g>
   <g id="line2d_3">
    <path d="M 347.904599 256.10971 
L 263.917872 64.140047 
" clip-path="url(#pe3ee0f73ae)" style="fill: none; stroke: #64748b; stroke-width: 1.2; stroke-linecap: square"/>
   </g>
   <g id="line2d_4">
    <path d="M 328.628957 212.051099 
L 231.998388 234.377295 
" clip-path="url(#pe3ee0f73ae)" style="fill: none; stroke: #7c3aed; stroke-width: 1.2; stroke-linecap: square"/>
   </g>
   <g id="line2d_5">
    <path d="M 328.628957 212.051099 
L 263.917872 256.10971 
" clip-path="url(#pe3ee0f73ae)" style="fill: none; stroke: #0891b2; stroke-width: 1.2; stroke-linecap: square"/>
   </g>
   <g id="line2d_6">
    <path d="M 227.92356 235.318772 
L 256.145746 261.40137 
" clip-path="url(#pe3ee0f73ae)" style="fill: none; stroke: #0f172a; stroke-width: 1.5; stroke-linecap: square"/>
   </g>
   <g id="line2d_7">
    <path d="M 227.92356 256.10971 
L 305.911235 160.124879 
" clip-path="url(#pe3ee0f73ae)" style="fill: none; stroke: #e11d48; stroke-width: 1.8; stroke-linecap: square"/>
   </g>
   <g id="line2d_8">
    <path d="M 227.92356 256.10971 
L 414.07596 407.358535 
" clip-path="url(#pe3ee0f73ae)" style="fill: none; stroke: #e11d48; stroke-width: 1.8; stroke-linecap: square"/>
   </g>
   <g id="text_1">
    <!-- A -->
    <g style="fill: #e11d48" transform="translate(233.92356 251.10971) scale(0.09 -0.09)">
     <defs>
      <path id="DejaVuSans-Bold-41" d="M 3419 850 
L 1538 850 
L 1241 0 
L 31 0 
L 1759 4666 
L 3194 4666 
L 4922 0 
L 3713 0 
L 3419 850 
z
M 1838 1716 
L 3116 1716 
L 2478 3572 
L 1838 1716 
z
" transform="scale(0.015625)"/>
     </defs>
     <use xlink:href="#DejaVuSans-Bold-41"/>
    </g>
   </g>
   <g id="text_2">
    <!-- B -->
    <g style="fill: #0f172a" transform="translate(353.904599 251.10971) scale(0.09 -0.09)">
     <defs>
      <path id="DejaVuSans-42" d="M 1259 2228 
L 1259 519 
L 2272 519 
Q 2781 519 3026 730 
Q 3272 941 3272 1375 
Q 3272 1813 3026 2020 
Q 2781 2228 2272 2228 
L 1259 2228 
z
M 1259 4147 
L 1259 2741 
L 2194 2741 
Q 2656 2741 2882 2914 
Q 3109 3088 3109 3444 
Q 3109 3797 2882 3972 
Q 2656 4147 2194 4147 
L 1259 4147 
z
M 628 4666 
L 2241 4666 
Q 2963 4666 3353 4366 
Q 3744 4066 3744 3513 
Q 3744 3084 3544 2831 
Q 3344 2578 2956 2516 
Q 3422 2416 3680 2098 
Q 3938 1781 3938 1306 
Q 3938 681 3513 340 
Q 3088 0 2303 0 
L 628 0 
L 628 4666 
z
" transform="scale(0.015625)"/>
     </defs>
     <use xlink:href="#DejaVuSans-42"/>
    </g>
   </g>
   <g id="text_3">
    <!-- C -->
    <g style="fill: #0f172a" transform="translate(269.917872 59.140047) scale(0.09 -0.09)">
     <defs>
      <path id="DejaVuSans-43" d="M 4122 4306 
L 4122 3641 
Q 3803 3938 3442 4084 
Q 3081 4231 2675 4231 
Q 1875 4231 1450 3742 
Q 1025 3253 1025 2328 
Q 1025 1406 1450 917 
Q 1875 428 2675 428 
Q 3081 428 3442 575 
Q 3803 722 4122 1019 
L 4122 359 
Q 3791 134 3420 21 
Q 3050 -91 2638 -91 
Q 1578 -91 968 557 
Q 359 1206 359 2328 
Q 359 3453 968 4101 
Q 1578 4750 2638 4750 
Q 3056 4750 3426 4639 
Q 3797 4528 4122 4306 
z
" transform="scale(0.015625)"/>
     </defs>
     <use xlink:href="#DejaVuSans-43"/>
    </g>
   </g>
   <g id="text_4">
    <!-- D -->
    <g style="fill: #0f172a" transform="translate(334.628957 207.051099) scale(0.09 -0.09)">
     <defs>
      <path id="DejaVuSans-44" d="M 1259 4147 
L 1259 519 
L 2022 519 
Q 2988 519 3436 956 
Q 3884 1394 3884 2338 
Q 3884 3275 3436 3711 
Q 2988 4147 2022 4147 
L 1259 4147 
z
M 628 4666 
L 1925 4666 
Q 3281 4666 3915 4102 
Q 4550 3538 4550 2338 
Q 4550 1131 3912 565 
Q 3275 0 1925 0 
L 628 0 
L 628 4666 
z
" transform="scale(0.015625)"/>
     </defs>
     <use xlink:href="#DejaVuSans-44"/>
    </g>
   </g>
   <g id="text_5">
    <!-- E -->
    <g style="fill: #0f172a" transform="translate(237.998388 229.377295) scale(0.09 -0.09)">
     <defs>
      <path id="DejaVuSans-45" d="M 628 4666 
L 3578 4666 
L 3578 4134 
L 1259 4134 
L 1259 2753 
L 3481 2753 
L 3481 2222 
L 1259 2222 
L 1259 531 
L 3634 531 
L 3634 0 
L 628 0 
L 628 4666 
z
" transform="scale(0.015625)"/>
     </defs>
     <use xlink:href="#DejaVuSans-45"/>
    </g>
   </g>
   <g id="text_6">
    <!-- F -->
    <g style="fill: #0f172a" transform="translate(269.917872 251.10971) scale(0.09 -0.09)">
     <defs>
      <path id="DejaVuSans-46" d="M 628 4666 
L 3309 4666 
L 3309 4134 
L 1259 4134 
L 1259 2759 
L 3109 2759 
L 3109 2228 
L 1259 2228 
L 1259 0 
L 628 0 
L 628 4666 
z
" transform="scale(0.015625)"/>
     </defs>
     <use xlink:href="#DejaVuSans-46"/>
    </g>
   </g>
   <g id="text_7">
    <!-- P -->
    <g style="fill: #0f172a" transform="translate(233.92356 230.318772) scale(0.09 -0.09)">
     <defs>
      <path id="DejaVuSans-50" d="M 1259 4147 
L 1259 2394 
L 2053 2394 
Q 2494 2394 2734 2622 
Q 2975 2850 2975 3272 
Q 2975 3691 2734 3919 
Q 2494 4147 2053 4147 
L 1259 4147 
z
M 628 4666 
L 2053 4666 
Q 2838 4666 3239 4311 
Q 3641 3956 3641 3272 
Q 3641 2581 3239 2228 
Q 2838 1875 2053 1875 
L 1259 1875 
L 1259 0 
L 628 0 
L 628 4666 
z
" transform="scale(0.015625)"/>
     </defs>
     <use xlink:href="#DejaVuSans-50"/>
    </g>
   </g>
   <g id="text_8">
    <!-- Q -->
    <g style="fill: #0f172a" transform="translate(262.145746 256.40137) scale(0.09 -0.09)">
     <defs>
      <path id="DejaVuSans-51" d="M 2522 4238 
Q 1834 4238 1429 3725 
Q 1025 3213 1025 2328 
Q 1025 1447 1429 934 
Q 1834 422 2522 422 
Q 3209 422 3611 934 
Q 4013 1447 4013 2328 
Q 4013 3213 3611 3725 
Q 3209 4238 2522 4238 
z
M 3406 84 
L 4238 -825 
L 3475 -825 
L 2784 -78 
Q 2681 -84 2626 -87 
Q 2572 -91 2522 -91 
Q 1538 -91 948 567 
Q 359 1225 359 2328 
Q 359 3434 948 4092 
Q 1538 4750 2522 4750 
Q 3503 4750 4090 4092 
Q 4678 3434 4678 2328 
Q 4678 1516 4351 937 
Q 4025 359 3406 84 
z
" transform="scale(0.015625)"/>
     </defs>
     <use xlink:href="#DejaVuSans-51"/>
    </g>
   </g>
   <g id="text_9">
    <!-- T -->
    <g style="fill: #e11d48" transform="translate(420.07596 402.358535) scale(0.09 -0.09)">
     <defs>
      <path id="DejaVuSans-Bold-54" d="M 31 4666 
L 4331 4666 
L 4331 3756 
L 2784 3756 
L 2784 0 
L 1581 0 
L 1581 3756 
L 31 3756 
L 31 4666 
z
" transform="scale(0.015625)"/>
     </defs>
     <use xlink:href="#DejaVuSans-Bold-54"/>
    </g>
   </g>
   <g id="text_10">
    <!-- M -->
    <g style="fill: #e11d48" transform="translate(311.911235 155.124879) scale(0.09 -0.09)">
     <defs>
      <path id="DejaVuSans-Bold-4d" d="M 588 4666 
L 2119 4666 
L 3181 2169 
L 4250 4666 
L 5778 4666 
L 5778 0 
L 4641 0 
L 4641 3413 
L 3566 897 
L 2803 897 
L 1728 3413 
L 1728 0 
L 588 0 
L 588 4666 
z
" transform="scale(0.015625)"/>
     </defs>
     <use xlink:href="#DejaVuSans-Bold-4d"/>
    </g>
   </g>
   <g id="text_11">
    <!-- 垂足三角形から現れる AM と AT の直交 -->
    <g style="fill: #0f172a" transform="translate(7.2 17.899062) scale(0.14 -0.14)">
     <defs>
      <path id="YuGothic-Regular-5782" d="M 3297 4538 
L 3297 3700 
L 4656 3700 
L 5553 3713 
Q 5603 3713 5603 3669 
L 5603 3475 
Q 5603 3438 5553 3438 
L 4778 3444 
L 4778 2559 
L 5225 2559 
L 6044 2572 
Q 6084 2572 6084 2522 
L 6084 2328 
Q 6084 2284 6044 2284 
L 5225 2297 
L 4778 2297 
L 4778 1313 
L 5531 1325 
Q 5578 1325 5578 1281 
L 5578 1088 
Q 5578 1044 5531 1044 
L 4631 1056 
L 3297 1056 
L 3297 166 
L 5034 166 
L 5891 178 
Q 5934 178 5934 134 
L 5934 -72 
Q 5934 -116 5891 -116 
L 5034 -103 
L 1372 -103 
L 516 -116 
Q 469 -116 469 -72 
L 469 134 
Q 469 178 516 178 
L 1372 166 
L 3009 166 
L 3009 1056 
L 1775 1056 
L 878 1044 
Q 834 1044 834 1088 
L 834 1281 
Q 834 1325 878 1325 
L 1609 1313 
L 1609 2297 
L 1166 2297 
L 347 2284 
Q 309 2284 309 2328 
L 309 2522 
Q 309 2572 347 2572 
L 1166 2559 
L 1609 2559 
L 1609 3444 
L 878 3438 
Q 834 3438 834 3475 
L 834 3669 
Q 834 3713 878 3713 
L 1775 3700 
L 3009 3700 
L 3009 4506 
L 2963 4500 
Q 2038 4403 1097 4366 
Q 1022 4366 1003 4381 
Q 991 4394 963 4469 
Q 925 4569 853 4641 
Q 1709 4647 2919 4763 
Q 3822 4853 4650 5050 
Q 4831 5103 4938 5166 
Q 5078 5072 5159 4981 
Q 5219 4922 5219 4891 
Q 5219 4841 5122 4841 
Q 5022 4841 4878 4806 
Q 4038 4634 3297 4538 
z
M 4497 3444 
L 3297 3444 
L 3297 2559 
L 4497 2559 
L 4497 3444 
z
M 3009 3444 
L 1891 3444 
L 1891 2559 
L 3009 2559 
L 3009 3444 
z
M 1891 1313 
L 3009 1313 
L 3009 2297 
L 1891 2297 
L 1891 1313 
z
M 3297 1313 
L 4497 1313 
L 4497 2297 
L 3297 2297 
L 3297 1313 
z
" transform="scale(0.015625)"/>
      <path id="YuGothic-Regular-8db3" d="M 3366 103 
Q 3753 19 4334 19 
Q 5256 19 6069 134 
Q 5994 38 5975 -78 
Q 5953 -163 5934 -175 
Q 5919 -188 5847 -191 
Q 5175 -269 4400 -269 
Q 3009 -269 2322 250 
Q 1828 638 1550 1159 
Q 1266 338 681 -294 
Q 625 -350 606 -350 
Q 584 -350 525 -300 
Q 447 -238 341 -206 
Q 1256 691 1488 2003 
Q 1522 2203 1522 2344 
Q 1522 2378 1519 2406 
Q 1703 2378 1825 2344 
Q 1897 2325 1897 2284 
Q 1897 2250 1850 2194 
Q 1784 2094 1769 1984 
Q 1722 1741 1653 1478 
Q 1922 891 2456 494 
Q 2725 291 3072 178 
L 3072 2913 
L 2297 2913 
L 1409 2900 
Q 1366 2900 1366 2944 
L 1378 3522 
L 1378 4281 
L 1366 4866 
Q 1366 4909 1409 4909 
L 2297 4897 
L 4147 4897 
L 5038 4909 
Q 5091 4909 5091 4866 
L 5078 4281 
L 5078 3522 
L 5091 2944 
Q 5091 2900 5038 2900 
L 4147 2913 
L 3366 2913 
L 3366 1759 
L 4541 1759 
L 5434 1772 
Q 5475 1772 5475 1728 
L 5475 1522 
Q 5475 1478 5434 1478 
L 4541 1491 
L 3366 1491 
L 3366 103 
z
M 1666 4622 
L 1666 3175 
L 4784 3175 
L 4784 4622 
L 1666 4622 
z
" transform="scale(0.015625)"/>
      <path id="YuGothic-Regular-4e09" d="M 1941 4372 
L 1031 4359 
Q 988 4359 988 4403 
L 988 4641 
Q 988 4678 1031 4678 
L 1941 4672 
L 4463 4672 
L 5372 4678 
Q 5416 4678 5416 4641 
L 5416 4403 
Q 5416 4359 5372 4359 
L 4463 4372 
L 1941 4372 
z
M 1372 159 
L 513 147 
Q 469 147 469 184 
L 469 428 
Q 469 472 513 472 
L 1372 459 
L 5019 459 
L 5878 472 
Q 5922 472 5922 428 
L 5922 184 
Q 5922 147 5878 147 
L 5019 159 
L 1372 159 
z
M 2306 2388 
L 1428 2375 
Q 1384 2375 1384 2419 
L 1384 2650 
Q 1384 2694 1428 2694 
L 2306 2681 
L 4084 2681 
L 4963 2694 
Q 5006 2694 5006 2650 
L 5006 2419 
Q 5006 2375 4963 2375 
L 4084 2388 
L 2306 2388 
z
" transform="scale(0.015625)"/>
      <path id="YuGothic-Regular-89d2" d="M 4013 50 
Q 4400 22 4647 22 
Q 4863 22 4938 100 
Q 5006 169 5006 331 
L 5006 1259 
L 1550 1259 
Q 1372 344 725 -316 
Q 672 -366 656 -366 
Q 634 -366 578 -322 
Q 469 -241 372 -219 
Q 947 303 1159 916 
Q 1363 1494 1363 2434 
L 1363 2938 
Q 1363 3378 1350 3556 
Q 1044 3303 684 3078 
Q 634 3044 619 3044 
Q 597 3044 550 3116 
Q 494 3213 416 3269 
Q 1494 3828 2163 4934 
Q 2284 5128 2338 5350 
Q 2525 5297 2631 5247 
Q 2697 5219 2697 5172 
Q 2697 5134 2638 5100 
Q 2584 5069 2497 4922 
L 2363 4716 
L 3725 4716 
Q 3816 4716 3853 4734 
Q 3878 4747 3903 4747 
Q 3953 4747 4059 4663 
Q 4163 4569 4163 4522 
Q 4163 4484 4091 4447 
Q 4006 4400 3938 4300 
Q 3759 4006 3481 3647 
L 4353 3647 
L 5259 3659 
Q 5306 3659 5306 3616 
L 5294 2938 
L 5294 1088 
L 5300 238 
Q 5300 -38 5125 -166 
Q 4978 -288 4372 -288 
Q 4334 -288 4244 -288 
Q 4163 -288 4147 -272 
Q 4134 -256 4116 -184 
Q 4088 -56 4013 50 
z
M 3413 2350 
L 3413 1516 
L 5006 1516 
L 5006 2350 
L 3413 2350 
z
M 2191 4466 
Q 1863 4003 1466 3653 
L 2303 3647 
L 3163 3647 
Q 3463 4047 3706 4466 
L 2191 4466 
z
M 5006 3397 
L 3413 3397 
L 3413 2606 
L 5006 2606 
L 5006 3397 
z
M 1653 2350 
Q 1641 1813 1594 1516 
L 3131 1516 
L 3131 2350 
L 1653 2350 
z
M 1653 3397 
L 1653 2606 
L 3131 2606 
L 3131 3397 
L 1653 3397 
z
" transform="scale(0.015625)"/>
      <path id="YuGothic-Regular-5f62" d="M 2938 2888 
L 3678 2900 
Q 3725 2900 3725 2856 
L 3725 2650 
Q 3725 2606 3678 2606 
L 2938 2619 
L 2938 822 
L 2950 -306 
Q 2950 -350 2903 -350 
L 2681 -350 
Q 2638 -350 2638 -306 
L 2650 822 
L 2650 2619 
L 1622 2619 
Q 1600 1941 1506 1447 
Q 1313 500 641 -231 
Q 594 -278 575 -278 
Q 553 -278 500 -225 
Q 413 -125 328 -81 
Q 759 325 975 766 
Q 1134 1091 1219 1525 
Q 1294 1888 1325 2619 
L 1306 2619 
L 450 2606 
Q 413 2606 413 2650 
L 413 2856 
Q 413 2900 450 2900 
L 1306 2888 
L 1334 2888 
Q 1341 3150 1341 3731 
L 1341 4569 
L 681 4563 
Q 634 4563 634 4600 
L 634 4806 
Q 634 4850 681 4850 
L 1494 4838 
L 2775 4838 
L 3591 4850 
Q 3634 4850 3634 4806 
L 3634 4600 
Q 3634 4563 3591 4563 
L 2938 4569 
L 2938 2888 
z
M 2650 2888 
L 2650 4569 
L 1634 4569 
L 1634 3675 
Q 1634 3150 1628 2888 
L 2650 2888 
z
M 5319 5131 
Q 5475 5050 5569 4966 
Q 5622 4925 5622 4897 
Q 5622 4859 5556 4831 
Q 5528 4816 5331 4634 
Q 4628 3969 3816 3550 
Q 3756 3522 3738 3522 
Q 3709 3522 3663 3603 
Q 3628 3669 3534 3750 
Q 4500 4191 5088 4813 
Q 5247 4981 5319 5131 
z
M 3347 -78 
Q 4178 269 4769 731 
Q 5209 1075 5631 1581 
Q 5797 1778 5869 1953 
Q 6009 1881 6131 1778 
Q 6172 1750 6172 1709 
Q 6172 1678 6106 1644 
Q 6078 1631 5856 1381 
Q 4991 341 3669 -281 
Q 3609 -306 3591 -306 
Q 3556 -306 3513 -231 
Q 3453 -131 3347 -78 
z
M 5581 3653 
Q 5744 3569 5838 3494 
Q 5891 3453 5891 3425 
Q 5891 3397 5831 3366 
Q 5797 3350 5616 3150 
Q 4897 2331 3891 1788 
Q 3841 1759 3822 1759 
Q 3794 1759 3744 1831 
Q 3691 1913 3597 1984 
Q 4638 2469 5397 3347 
Q 5541 3516 5581 3653 
z
" transform="scale(0.015625)"/>
      <path id="YuGothic-Regular-304b" d="M 2266 3388 
Q 2413 3875 2506 4288 
Q 2563 4531 2563 4766 
Q 2563 4847 2559 4916 
Q 2806 4853 2994 4756 
Q 3041 4728 3041 4684 
Q 3041 4647 3006 4616 
Q 2925 4534 2891 4409 
Q 2747 3881 2603 3425 
Q 2984 3481 3256 3481 
Q 3709 3481 3891 3234 
Q 4063 3006 4063 2503 
Q 4063 1172 3716 450 
Q 3484 -38 3050 -38 
Q 2697 -38 2388 78 
Q 2328 97 2328 159 
Q 2328 303 2266 469 
Q 2666 294 2994 294 
Q 3269 294 3425 619 
Q 3731 1281 3731 2497 
Q 3731 2916 3616 3066 
Q 3509 3206 3256 3206 
Q 2997 3206 2522 3138 
Q 2009 1566 1216 91 
Q 1200 53 1166 53 
Q 1147 53 1134 63 
Q 1122 72 1025 138 
Q 956 184 928 206 
Q 906 219 906 238 
Q 906 253 922 281 
Q 1641 1522 2175 3084 
Q 1584 3000 1338 2956 
Q 1113 2919 984 2856 
Q 931 2831 900 2831 
Q 850 2831 825 2881 
Q 750 3044 703 3241 
Q 778 3234 856 3234 
Q 1078 3234 1350 3266 
Q 1650 3297 2266 3388 
z
M 4563 3638 
Q 4681 3731 4788 3784 
Q 4803 3791 4816 3791 
Q 4844 3791 4875 3766 
Q 5578 3156 5888 2216 
Q 5897 2178 5897 2166 
Q 5897 2138 5875 2116 
Q 5809 2059 5675 1994 
Q 5647 1978 5625 1978 
Q 5584 1978 5572 2031 
Q 5272 3009 4563 3638 
z
" transform="scale(0.015625)"/>
      <path id="YuGothic-Regular-3089" d="M 2172 4850 
Q 2231 4950 2338 5056 
Q 2363 5081 2384 5081 
Q 2397 5081 2419 5075 
Q 3000 4828 3553 4359 
Q 3578 4338 3578 4319 
Q 3578 4303 3566 4281 
Q 3528 4225 3400 4084 
Q 3381 4066 3363 4066 
Q 3341 4066 3316 4091 
Q 2825 4563 2172 4850 
z
M 1647 3688 
Q 1856 3625 2000 3519 
Q 2056 3484 2056 3438 
Q 2056 3409 2031 3378 
Q 1969 3319 1928 3084 
Q 1747 2144 1728 1491 
Q 2225 2109 2919 2450 
Q 3488 2731 4000 2731 
Q 4663 2731 5031 2363 
Q 5344 2047 5344 1553 
Q 5344 697 4378 216 
Q 3741 -97 2869 -191 
Q 2850 -194 2834 -194 
Q 2766 -194 2734 -141 
Q 2650 -6 2503 97 
Q 3591 184 4203 500 
Q 4984 906 4984 1581 
Q 4984 2000 4706 2222 
Q 4444 2431 3963 2431 
Q 3472 2431 2922 2125 
Q 2453 1863 2044 1434 
Q 1847 1222 1747 1044 
Q 1728 1009 1703 1009 
Q 1694 1009 1666 1019 
Q 1572 1053 1459 1116 
Q 1422 1134 1422 1191 
Q 1447 2059 1606 3175 
Q 1647 3453 1647 3622 
Q 1647 3666 1647 3688 
z
" transform="scale(0.015625)"/>
      <path id="YuGothic-Regular-73fe" d="M 3772 1606 
Q 3656 700 3125 231 
Q 2688 -156 1794 -391 
Q 1744 -406 1728 -406 
Q 1697 -406 1641 -322 
Q 1569 -216 1494 -166 
Q 2525 50 2969 475 
Q 3394 878 3463 1606 
L 2753 1594 
Q 2709 1594 2709 1638 
L 2722 2425 
L 2722 4147 
L 2709 4934 
Q 2709 4978 2753 4978 
L 3553 4966 
L 4678 4966 
L 5469 4978 
Q 5516 4978 5516 4934 
L 5503 4147 
L 5503 2425 
L 5516 1638 
Q 5516 1594 5469 1594 
L 4678 1606 
L 4634 1606 
L 4634 256 
Q 4634 109 4659 59 
Q 4688 6 4769 -6 
Q 4913 -31 5222 -31 
Q 5569 -31 5706 66 
Q 5822 141 5866 344 
Q 5897 488 5906 788 
Q 6009 706 6094 666 
Q 6169 622 6169 581 
Q 6169 566 6163 525 
Q 6128 206 6066 56 
Q 6013 -72 5906 -153 
Q 5703 -306 5222 -306 
Q 4778 -306 4575 -263 
Q 4341 -203 4341 122 
L 4341 1606 
L 3772 1606 
z
M 3009 1856 
L 5216 1856 
L 5216 2675 
L 3009 2675 
L 3009 1856 
z
M 3009 2925 
L 5216 2925 
L 5216 3688 
L 3009 3688 
L 3009 2925 
z
M 3009 3938 
L 5216 3938 
L 5216 4703 
L 3009 4703 
L 3009 3938 
z
M 1288 1184 
L 1288 2816 
L 1141 2816 
L 563 2803 
Q 519 2803 519 2847 
L 519 3047 
Q 519 3091 563 3091 
L 1141 3078 
L 1288 3078 
L 1288 4544 
L 1094 4544 
L 469 4531 
Q 422 4531 422 4581 
L 422 4781 
Q 422 4825 469 4825 
L 1094 4813 
L 1753 4813 
L 2381 4825 
Q 2425 4825 2425 4781 
L 2425 4581 
Q 2425 4531 2381 4531 
L 1753 4544 
L 1575 4544 
L 1575 3078 
L 1697 3078 
L 2272 3091 
Q 2316 3091 2316 3047 
L 2316 2847 
Q 2316 2803 2272 2803 
L 1697 2816 
L 1575 2816 
L 1575 1306 
Q 2066 1525 2419 1741 
Q 2406 1672 2406 1556 
Q 2409 1519 2409 1503 
Q 2409 1441 2331 1394 
Q 1716 1041 859 703 
Q 631 609 616 594 
Q 575 556 550 556 
Q 519 556 494 606 
Q 453 678 384 897 
Q 638 944 972 1063 
Q 1034 1084 1144 1128 
Q 1247 1169 1288 1184 
z
" transform="scale(0.015625)"/>
      <path id="YuGothic-Regular-308c" d="M 1922 5044 
Q 2147 5025 2309 4972 
Q 2394 4944 2394 4884 
Q 2394 4853 2369 4813 
Q 2319 4744 2313 4588 
Q 2269 4084 2253 3659 
Q 2403 3581 2478 3513 
Q 2503 3488 2503 3463 
Q 2503 3438 2478 3397 
Q 2325 3141 2228 2950 
Q 2209 2788 2209 2606 
Q 2447 2888 2959 3397 
Q 3600 4038 4097 4038 
Q 4756 4038 4756 3256 
Q 4756 2956 4691 2059 
Q 4634 1231 4634 1009 
Q 4634 684 4734 566 
Q 4813 472 4975 472 
Q 5272 472 5525 716 
Q 5763 969 5922 1344 
Q 5953 1175 6031 1075 
Q 6066 1028 6066 988 
Q 6066 950 6038 903 
Q 5594 166 4969 166 
Q 4309 166 4309 947 
Q 4309 1247 4359 2047 
Q 4409 2884 4409 3169 
Q 4409 3756 4091 3756 
Q 3719 3756 3175 3250 
Q 2816 2922 2197 2222 
Q 2197 1916 2213 1078 
Q 2225 309 2228 -169 
Q 2228 -213 2178 -219 
Q 2063 -231 1928 -231 
Q 1891 -231 1891 -175 
Q 1891 500 1909 2094 
Q 1563 1609 884 603 
Q 856 563 831 563 
Q 819 563 794 578 
Q 709 631 616 738 
Q 600 756 600 775 
Q 600 800 628 834 
Q 1378 1809 1916 2644 
Q 1931 3241 1934 3284 
Q 1478 3147 1019 2966 
Q 988 2953 922 2906 
Q 875 2875 853 2875 
Q 806 2875 769 2925 
Q 659 3081 603 3219 
Q 800 3219 1044 3284 
Q 1438 3388 1947 3559 
L 1972 4409 
Q 1972 4797 1922 5044 
z
" transform="scale(0.015625)"/>
      <path id="YuGothic-Regular-308b" d="M 3834 4500 
Q 3172 4403 2113 4213 
Q 2003 4194 1906 4147 
Q 1844 4116 1794 4116 
Q 1741 4116 1703 4178 
Q 1634 4319 1569 4531 
Q 1741 4513 1881 4513 
Q 2000 4513 2119 4525 
Q 2941 4613 3756 4756 
Q 3838 4766 3900 4806 
Q 3950 4844 3975 4844 
Q 4016 4844 4084 4794 
Q 4247 4663 4316 4575 
Q 4347 4534 4347 4484 
Q 4347 4403 4256 4378 
Q 4134 4347 3944 4141 
Q 3259 3372 2216 2309 
L 2234 2284 
Q 3025 2822 3744 2822 
Q 4469 2822 4863 2397 
Q 5197 2038 5197 1466 
Q 5197 709 4591 263 
Q 4034 -147 3131 -147 
Q 2566 -147 2284 97 
Q 2075 281 2075 544 
Q 2075 825 2281 1009 
Q 2475 1178 2772 1178 
Q 3216 1178 3513 875 
Q 3756 625 3841 231 
Q 4331 369 4594 697 
Q 4850 1019 4850 1478 
Q 4850 2003 4466 2309 
Q 4150 2559 3713 2559 
Q 2850 2559 1906 1816 
Q 1644 1616 1338 1313 
Q 1303 1278 1278 1278 
Q 1256 1278 1234 1300 
Q 1106 1428 1056 1491 
Q 1044 1513 1044 1525 
Q 1044 1547 1075 1575 
Q 1731 2141 2522 2994 
Q 3191 3722 3834 4500 
z
M 3528 166 
Q 3463 528 3256 728 
Q 3063 916 2784 916 
Q 2350 916 2350 556 
Q 2350 359 2559 234 
Q 2750 122 3053 122 
Q 3288 122 3528 166 
z
" transform="scale(0.015625)"/>
      <path id="YuGothic-Regular-20" d="M 0 0 
Q 0 0 0 0 
z
" transform="scale(0.015625)"/>
      <path id="YuGothic-Regular-41" d="M 2350 4806 
L 3891 141 
L 3444 141 
L 2950 1681 
L 1191 1681 
L 684 141 
L 263 141 
L 1806 4806 
L 2350 4806 
z
M 2853 2022 
L 2466 3238 
Q 2256 3872 2094 4475 
L 2034 4475 
Q 1866 3850 1672 3244 
L 1288 2022 
L 2853 2022 
z
" transform="scale(0.015625)"/>
      <path id="YuGothic-Regular-4d" d="M 5156 4806 
L 5156 141 
L 4753 141 
L 4753 3078 
L 4759 4459 
L 4688 4459 
Q 4594 4141 4247 3103 
L 3197 141 
L 2653 141 
L 1619 3103 
Q 1391 3753 1169 4459 
L 1100 4459 
Q 1097 4325 1097 4178 
L 1106 3072 
L 1106 141 
L 722 141 
L 722 4806 
L 1431 4806 
L 2444 1881 
Q 2694 1169 2903 513 
L 2969 513 
Q 3328 1584 3428 1863 
L 4453 4806 
L 5156 4806 
z
" transform="scale(0.015625)"/>
      <path id="YuGothic-Regular-3068" d="M 2169 4978 
Q 2419 4978 2609 4928 
Q 2675 4913 2675 4863 
L 2634 4647 
Q 2634 4475 2666 4244 
Q 2750 3519 2944 2875 
Q 3100 2956 3591 3200 
Q 3944 3378 4153 3488 
Q 4384 3609 4497 3756 
Q 4669 3606 4781 3456 
Q 4803 3428 4803 3394 
Q 4803 3322 4703 3309 
Q 4550 3281 4141 3103 
Q 3288 2722 2725 2400 
Q 1719 1819 1719 1178 
Q 1719 763 2081 591 
Q 2438 422 3238 422 
Q 3972 422 4916 559 
Q 4925 559 4931 559 
Q 4984 559 4991 506 
Q 5016 359 5025 269 
Q 5025 259 5025 253 
Q 5025 194 4941 188 
Q 4066 97 3256 97 
Q 2244 97 1791 384 
Q 1388 641 1388 1153 
Q 1388 1619 1747 2019 
Q 2044 2350 2656 2719 
Q 2428 3394 2303 4391 
Q 2266 4731 2169 4978 
z
" transform="scale(0.015625)"/>
      <path id="YuGothic-Regular-54" d="M 3722 4806 
L 3722 4441 
L 2219 4441 
L 2219 141 
L 1797 141 
L 1797 4441 
L 300 4441 
L 300 4806 
L 3722 4806 
z
" transform="scale(0.015625)"/>
      <path id="YuGothic-Regular-306e" d="M 3400 4091 
Q 3306 3228 3056 2425 
Q 2838 1719 2559 1275 
Q 2159 634 1647 634 
Q 1278 634 1019 1044 
Q 775 1434 775 2022 
Q 775 2497 997 2966 
Q 1194 3391 1525 3688 
Q 2269 4359 3378 4359 
Q 4494 4359 5100 3731 
Q 5619 3197 5619 2350 
Q 5619 1506 5075 931 
Q 4559 381 3603 153 
Q 3581 150 3569 150 
Q 3509 150 3475 219 
Q 3416 325 3303 391 
Q 4347 606 4844 1191 
Q 5266 1688 5266 2413 
Q 5266 3213 4691 3694 
Q 4216 4091 3547 4091 
Q 3438 4091 3400 4091 
z
M 3059 4072 
Q 2275 3994 1741 3481 
Q 1391 3147 1222 2697 
Q 1094 2353 1094 2019 
Q 1094 1478 1313 1184 
Q 1472 975 1669 975 
Q 2000 975 2297 1481 
Q 2584 1972 2803 2731 
Q 3000 3422 3059 4072 
z
" transform="scale(0.015625)"/>
      <path id="YuGothic-Regular-76f4" d="M 3359 3688 
L 4253 3688 
L 5072 3700 
Q 5119 3700 5119 3656 
L 5106 2944 
L 5106 1550 
L 5119 844 
Q 5119 800 5072 800 
L 4253 813 
L 2981 813 
L 2163 800 
Q 2113 800 2113 844 
L 2125 1550 
L 2125 2944 
L 2113 3656 
Q 2113 3700 2163 3700 
L 2981 3688 
L 3066 3688 
Q 3178 4134 3225 4359 
L 1466 4359 
L 600 4347 
Q 556 4347 556 4391 
L 556 4597 
Q 556 4641 600 4641 
L 1466 4628 
L 3275 4628 
Q 3316 4847 3334 4947 
Q 3366 5147 3366 5350 
Q 3563 5331 3691 5288 
Q 3756 5266 3756 5228 
Q 3756 5203 3716 5141 
Q 3672 5075 3641 4922 
L 3584 4628 
L 5066 4628 
L 5925 4641 
Q 5969 4641 5969 4597 
L 5969 4391 
Q 5969 4347 5925 4347 
L 5066 4359 
L 3519 4359 
Q 3475 4134 3359 3688 
z
M 2406 2822 
L 4825 2822 
L 4825 3438 
L 2406 3438 
L 2406 2822 
z
M 2406 2584 
L 2406 1959 
L 4825 1959 
L 4825 2584 
L 2406 2584 
z
M 2406 1722 
L 2406 1063 
L 4825 1063 
L 4825 1722 
L 2406 1722 
z
M 919 3669 
Q 1078 3659 1263 3634 
Q 1328 3625 1328 3584 
Q 1328 3544 1303 3475 
Q 1266 3347 1266 2869 
L 1266 250 
L 4984 250 
L 5891 263 
Q 5938 263 5938 219 
L 5938 13 
Q 5938 -31 5891 -31 
L 4984 -19 
L 1266 -19 
L 1266 -325 
Q 1266 -372 1219 -372 
L 1003 -372 
Q 959 -372 959 -325 
L 972 384 
L 972 2856 
Q 972 3388 919 3669 
z
" transform="scale(0.015625)"/>
      <path id="YuGothic-Regular-4ea4" d="M 2966 1119 
Q 2531 1603 2113 2438 
Q 2103 2456 2103 2466 
Q 2103 2484 2178 2528 
L 2300 2584 
Q 2331 2603 2344 2603 
Q 2359 2603 2369 2578 
Q 2725 1831 3169 1331 
Q 3478 1678 3713 2100 
Q 3872 2375 3950 2650 
Q 4103 2597 4253 2516 
Q 4316 2484 4316 2438 
Q 4316 2400 4244 2328 
Q 4156 2253 4022 2028 
Q 3734 1519 3381 1119 
Q 4241 306 5984 -109 
Q 5894 -178 5825 -313 
Q 5788 -403 5753 -403 
Q 5734 -403 5678 -384 
Q 4025 81 3175 903 
Q 2347 94 781 -378 
Q 719 -397 700 -397 
Q 666 -397 622 -313 
Q 566 -209 469 -141 
Q 2069 272 2966 1119 
z
M 3003 4378 
L 3003 4575 
Q 3003 5063 2959 5241 
Q 3172 5231 3297 5209 
Q 3369 5200 3369 5166 
Q 3369 5141 3331 5050 
Q 3303 4975 3303 4575 
L 3303 4378 
L 5006 4378 
L 5863 4391 
Q 5909 4391 5909 4347 
L 5909 4128 
Q 5909 4084 5863 4084 
L 5006 4097 
L 1397 4097 
L 541 4084 
Q 494 4084 494 4128 
L 494 4347 
Q 494 4391 541 4391 
L 1397 4378 
L 3003 4378 
z
M 566 2344 
Q 1347 2813 1878 3469 
Q 1981 3597 2038 3775 
Q 2169 3719 2300 3628 
Q 2356 3588 2356 3547 
Q 2356 3509 2300 3475 
Q 2253 3447 2119 3291 
Q 1622 2681 872 2169 
Q 822 2134 803 2134 
Q 778 2134 731 2194 
Q 653 2294 566 2344 
z
M 5850 2456 
Q 5753 2384 5697 2291 
Q 5653 2222 5625 2222 
Q 5609 2222 5550 2253 
Q 4613 2791 4013 3578 
Q 4000 3600 4000 3613 
Q 4000 3638 4059 3675 
L 4156 3731 
Q 4203 3763 4219 3763 
Q 4238 3763 4256 3738 
Q 4922 2900 5850 2456 
z
" transform="scale(0.015625)"/>
     </defs>
     <use xlink:href="#YuGothic-Regular-5782"/>
     <use xlink:href="#YuGothic-Regular-8db3" transform="translate(100 0)"/>
     <use xlink:href="#YuGothic-Regular-4e09" transform="translate(200 0)"/>
     <use xlink:href="#YuGothic-Regular-89d2" transform="translate(300 0)"/>
     <use xlink:href="#YuGothic-Regular-5f62" transform="translate(400 0)"/>
     <use xlink:href="#YuGothic-Regular-304b" transform="translate(500 0)"/>
     <use xlink:href="#YuGothic-Regular-3089" transform="translate(600 0)"/>
     <use xlink:href="#YuGothic-Regular-73fe" transform="translate(700 0)"/>
     <use xlink:href="#YuGothic-Regular-308c" transform="translate(800 0)"/>
     <use xlink:href="#YuGothic-Regular-308b" transform="translate(900 0)"/>
     <use xlink:href="#YuGothic-Regular-20" transform="translate(1000 0)"/>
     <use xlink:href="#YuGothic-Regular-41" transform="translate(1028.515625 0)"/>
     <use xlink:href="#YuGothic-Regular-4d" transform="translate(1093.408203 0)"/>
     <use xlink:href="#YuGothic-Regular-20" transform="translate(1185.302734 0)"/>
     <use xlink:href="#YuGothic-Regular-3068" transform="translate(1213.818359 0)"/>
     <use xlink:href="#YuGothic-Regular-20" transform="translate(1313.818359 0)"/>
     <use xlink:href="#YuGothic-Regular-41" transform="translate(1342.333984 0)"/>
     <use xlink:href="#YuGothic-Regular-54" transform="translate(1407.226562 0)"/>
     <use xlink:href="#YuGothic-Regular-20" transform="translate(1470.117188 0)"/>
     <use xlink:href="#YuGothic-Regular-306e" transform="translate(1498.632812 0)"/>
     <use xlink:href="#YuGothic-Regular-76f4" transform="translate(1598.632812 0)"/>
     <use xlink:href="#YuGothic-Regular-4ea4" transform="translate(1698.632812 0)"/>
    </g>
   </g>
   <g id="PathCollection_1">
    <defs>
     <path id="m1a94072038" d="M 0 2.645751 
C 0.701661 2.645751 1.374679 2.366978 1.870829 1.870829 
C 2.366978 1.374679 2.645751 0.701661 2.645751 0 
C 2.645751 -0.701661 2.366978 -1.374679 1.870829 -1.870829 
C 1.374679 -2.366978 0.701661 -2.645751 0 -2.645751 
C -0.701661 -2.645751 -1.374679 -2.366978 -1.870829 -1.870829 
C -2.366978 -1.374679 -2.645751 -0.701661 -2.645751 0 
C -2.645751 0.701661 -2.366978 1.374679 -1.870829 1.870829 
C -1.374679 2.366978 -0.701661 2.645751 0 2.645751 
z
" style="stroke: #e11d48"/>
    </defs>
    <g clip-path="url(#pe3ee0f73ae)">
     <use xlink:href="#m1a94072038" x="227.92356" y="256.10971" style="fill: #e11d48; stroke: #e11d48"/>
    </g>
   </g>
   <g id="PathCollection_2">
    <defs>
     <path id="m1d0a083a1a" d="M 0 2.645751 
C 0.701661 2.645751 1.374679 2.366978 1.870829 1.870829 
C 2.366978 1.374679 2.645751 0.701661 2.645751 0 
C 2.645751 -0.701661 2.366978 -1.374679 1.870829 -1.870829 
C 1.374679 -2.366978 0.701661 -2.645751 0 -2.645751 
C -0.701661 -2.645751 -1.374679 -2.366978 -1.870829 -1.870829 
C -2.366978 -1.374679 -2.645751 -0.701661 -2.645751 0 
C -2.645751 0.701661 -2.366978 1.374679 -1.870829 1.870829 
C -1.374679 2.366978 -0.701661 2.645751 0 2.645751 
z
" style="stroke: #0f172a"/>
    </defs>
    <g clip-path="url(#pe3ee0f73ae)">
     <use xlink:href="#m1d0a083a1a" x="347.904599" y="256.10971" style="fill: #0f172a; stroke: #0f172a"/>
    </g>
   </g>
   <g id="PathCollection_3">
    <g clip-path="url(#pe3ee0f73ae)">
     <use xlink:href="#m1d0a083a1a" x="263.917872" y="64.140047" style="fill: #0f172a; stroke: #0f172a"/>
    </g>
   </g>
   <g id="PathCollection_4">
    <g clip-path="url(#pe3ee0f73ae)">
     <use xlink:href="#m1d0a083a1a" x="328.628957" y="212.051099" style="fill: #0f172a; stroke: #0f172a"/>
    </g>
   </g>
   <g id="PathCollection_5">
    <g clip-path="url(#pe3ee0f73ae)">
     <use xlink:href="#m1d0a083a1a" x="231.998388" y="234.377295" style="fill: #0f172a; stroke: #0f172a"/>
    </g>
   </g>
   <g id="PathCollection_6">
    <g clip-path="url(#pe3ee0f73ae)">
     <use xlink:href="#m1d0a083a1a" x="263.917872" y="256.10971" style="fill: #0f172a; stroke: #0f172a"/>
    </g>
   </g>
   <g id="PathCollection_7">
    <g clip-path="url(#pe3ee0f73ae)">
     <use xlink:href="#m1d0a083a1a" x="227.92356" y="235.318772" style="fill: #0f172a; stroke: #0f172a"/>
    </g>
   </g>
   <g id="PathCollection_8">
    <g clip-path="url(#pe3ee0f73ae)">
     <use xlink:href="#m1d0a083a1a" x="256.145746" y="261.40137" style="fill: #0f172a; stroke: #0f172a"/>
    </g>
   </g>
   <g id="PathCollection_9">
    <g clip-path="url(#pe3ee0f73ae)">
     <use xlink:href="#m1a94072038" x="414.07596" y="407.358535" style="fill: #e11d48; stroke: #e11d48"/>
    </g>
   </g>
   <g id="PathCollection_10">
    <g clip-path="url(#pe3ee0f73ae)">
     <use xlink:href="#m1a94072038" x="305.911235" y="160.124879" style="fill: #e11d48; stroke: #e11d48"/>
    </g>
   </g>
  </g>
 </g>
 <defs>
  <clipPath id="pe3ee0f73ae">
   <rect x="7.2" y="23.899062" width="627.59952" height="423.700458"/>
  </clipPath>
 </defs>
</svg>
