<?xml version="1.0" encoding="utf-8" standalone="no"?>
<!DOCTYPE svg PUBLIC "-//W3C//DTD SVG 1.1//EN"
  "http://www.w3.org/Graphics/SVG/1.1/DTD/svg11.dtd">
<svg xmlns:xlink="http://www.w3.org/1999/xlink" width="626.4pt" height="438.290625pt" viewBox="0 0 626.4 438.290625" xmlns="http://www.w3.org/2000/svg" version="1.1">
 <metadata>
  <rdf:RDF xmlns:dc="http://purl.org/dc/elements/1.1/" xmlns:cc="http://creativecommons.org/ns#" xmlns:rdf="http://www.w3.org/1999/02/22-rdf-syntax-ns#">
   <cc:Work>
    <dc:type rdf:resource="http://purl.org/dc/dcmitype/StillImage"/>
    <dc:date>2026-08-28T16:28:13.017036</dc:date>
    <dc:format>image/svg+xml</dc:format>
    <dc:creator>
     <cc:Agent>
      <dc:title>Matplotlib v3.10.5, https://matplotlib.org/</dc:title>
     </cc:Agent>
    </dc:creator>
   </cc:Work>
  </rdf:RDF>
 </metadata>
 <defs>
  <style type="text/css">*{stroke-linejoin: round; stroke-linecap: butt}</style>
 </defs>
 <g id="figure_1">
  <g id="patch_1">
   <path d="M 0 438.290625 
L 626.4 438.290625 
L 626.4 0 
L 0 0 
z
" style="fill: #07090c"/>
  </g>
  <g id="axes_1">
   <g id="line2d_1">
    <path d="M 293.791966 58.527665 
L 35.018182 394.933585 
L 591.381818 369.056206 
L 293.791966 58.527665 
" clip-path="url(#p605599f831)" style="fill: none; stroke: #6f7b85; stroke-width: 1.3; stroke-linecap: square"/>
   </g>
   <g id="line2d_2">
    <path d="M 298.967442 259.077348 
L 309.318393 323.770794 
" clip-path="url(#p605599f831)" style="fill: none; stroke: #31d7e8; stroke-opacity: 0.9; stroke-width: 1.2; stroke-linecap: square"/>
   </g>
   <g id="line2d_3">
    <path d="M 416.709514 220.26128 
L 177.343763 207.322591 
" clip-path="url(#p605599f831)" style="fill: none; stroke: #ffb454; stroke-opacity: 0.9; stroke-width: 1.2; stroke-linecap: square"/>
   </g>
   <g id="line2d_4">
    <path d="M 296.379704 168.506524 
L 306.730655 375.525551 
" clip-path="url(#p605599f831)" style="fill: none; stroke: #76e39a; stroke-opacity: 0.9; stroke-width: 1.2; stroke-linecap: square"/>
   </g>
   <g id="line2d_5">
    <path d="M 293.791966 58.527665 
L 309.318393 323.770794 
" clip-path="url(#p605599f831)" style="fill: none; stroke: #31d7e8; stroke-opacity: 0.9; stroke-width: 1.2; stroke-linecap: square"/>
   </g>
   <g id="text_1">
    <!-- A -->
    <g style="fill: #f1f5f8" transform="translate(300.261311 53.352189) scale(0.09 -0.09)">
     <defs>
      <path id="DejaVuSans-41" d="M 2188 4044 
L 1331 1722 
L 3047 1722 
L 2188 4044 
z
M 1831 4666 
L 2547 4666 
L 4325 0 
L 3669 0 
L 3244 1197 
L 1141 1197 
L 716 0 
L 50 0 
L 1831 4666 
z
" transform="scale(0.015625)"/>
     </defs>
     <use xlink:href="#DejaVuSans-41"/>
    </g>
   </g>
   <g id="text_2">
    <!-- B -->
    <g style="fill: #f1f5f8" transform="translate(41.487526 389.758109) scale(0.09 -0.09)">
     <defs>
      <path id="DejaVuSans-42" d="M 1259 2228 
L 1259 519 
L 2272 519 
Q 2781 519 3026 730 
Q 3272 941 3272 1375 
Q 3272 1813 3026 2020 
Q 2781 2228 2272 2228 
L 1259 2228 
z
M 1259 4147 
L 1259 2741 
L 2194 2741 
Q 2656 2741 2882 2914 
Q 3109 3088 3109 3444 
Q 3109 3797 2882 3972 
Q 2656 4147 2194 4147 
L 1259 4147 
z
M 628 4666 
L 2241 4666 
Q 2963 4666 3353 4366 
Q 3744 4066 3744 3513 
Q 3744 3084 3544 2831 
Q 3344 2578 2956 2516 
Q 3422 2416 3680 2098 
Q 3938 1781 3938 1306 
Q 3938 681 3513 340 
Q 3088 0 2303 0 
L 628 0 
L 628 4666 
z
" transform="scale(0.015625)"/>
     </defs>
     <use xlink:href="#DejaVuSans-42"/>
    </g>
   </g>
   <g id="text_3">
    <!-- C -->
    <g style="fill: #f1f5f8" transform="translate(597.851163 363.880731) scale(0.09 -0.09)">
     <defs>
      <path id="DejaVuSans-43" d="M 4122 4306 
L 4122 3641 
Q 3803 3938 3442 4084 
Q 3081 4231 2675 4231 
Q 1875 4231 1450 3742 
Q 1025 3253 1025 2328 
Q 1025 1406 1450 917 
Q 1875 428 2675 428 
Q 3081 428 3442 575 
Q 3803 722 4122 1019 
L 4122 359 
Q 3791 134 3420 21 
Q 3050 -91 2638 -91 
Q 1578 -91 968 557 
Q 359 1206 359 2328 
Q 359 3453 968 4101 
Q 1578 4750 2638 4750 
Q 3056 4750 3426 4639 
Q 3797 4528 4122 4306 
z
" transform="scale(0.015625)"/>
     </defs>
     <use xlink:href="#DejaVuSans-43"/>
    </g>
   </g>
   <g id="text_4">
    <!-- H -->
    <g style="fill: #f1f5f8" transform="translate(315.787738 318.595318) scale(0.09 -0.09)">
     <defs>
      <path id="DejaVuSans-48" d="M 628 4666 
L 1259 4666 
L 1259 2753 
L 3553 2753 
L 3553 4666 
L 4184 4666 
L 4184 0 
L 3553 0 
L 3553 2222 
L 1259 2222 
L 1259 0 
L 628 0 
L 628 4666 
z
" transform="scale(0.015625)"/>
     </defs>
     <use xlink:href="#DejaVuSans-48"/>
    </g>
   </g>
   <g id="text_5">
    <!-- D -->
    <g style="fill: #f1f5f8" transform="translate(305.436786 253.901872) scale(0.09 -0.09)">
     <defs>
      <path id="DejaVuSans-44" d="M 1259 4147 
L 1259 519 
L 2022 519 
Q 2988 519 3436 956 
Q 3884 1394 3884 2338 
Q 3884 3275 3436 3711 
Q 2988 4147 2022 4147 
L 1259 4147 
z
M 628 4666 
L 1925 4666 
Q 3281 4666 3915 4102 
Q 4550 3538 4550 2338 
Q 4550 1131 3912 565 
Q 3275 0 1925 0 
L 628 0 
L 628 4666 
z
" transform="scale(0.015625)"/>
     </defs>
     <use xlink:href="#DejaVuSans-44"/>
    </g>
   </g>
   <g id="text_6">
    <!-- E -->
    <g style="fill: #f1f5f8" transform="translate(423.178858 215.085805) scale(0.09 -0.09)">
     <defs>
      <path id="DejaVuSans-45" d="M 628 4666 
L 3578 4666 
L 3578 4134 
L 1259 4134 
L 1259 2753 
L 3481 2753 
L 3481 2222 
L 1259 2222 
L 1259 531 
L 3634 531 
L 3634 0 
L 628 0 
L 628 4666 
z
" transform="scale(0.015625)"/>
     </defs>
     <use xlink:href="#DejaVuSans-45"/>
    </g>
   </g>
   <g id="text_7">
    <!-- F -->
    <g style="fill: #f1f5f8" transform="translate(183.813108 202.147115) scale(0.09 -0.09)">
     <defs>
      <path id="DejaVuSans-46" d="M 628 4666 
L 3309 4666 
L 3309 4134 
L 1259 4134 
L 1259 2759 
L 3109 2759 
L 3109 2228 
L 1259 2228 
L 1259 0 
L 628 0 
L 628 4666 
z
" transform="scale(0.015625)"/>
     </defs>
     <use xlink:href="#DejaVuSans-46"/>
    </g>
   </g>
   <g id="text_8">
    <!-- X -->
    <g style="fill: #f1f5f8" transform="translate(302.849049 163.331048) scale(0.09 -0.09)">
     <defs>
      <path id="DejaVuSans-58" d="M 403 4666 
L 1081 4666 
L 2241 2931 
L 3406 4666 
L 4084 4666 
L 2584 2425 
L 4184 0 
L 3506 0 
L 2194 1984 
L 872 0 
L 191 0 
L 1856 2491 
L 403 4666 
z
" transform="scale(0.015625)"/>
     </defs>
     <use xlink:href="#DejaVuSans-58"/>
    </g>
   </g>
   <g id="text_9">
    <!-- P -->
    <g style="fill: #f1f5f8" transform="translate(313.2 370.350075) scale(0.09 -0.09)">
     <defs>
      <path id="DejaVuSans-50" d="M 1259 4147 
L 1259 2394 
L 2053 2394 
Q 2494 2394 2734 2622 
Q 2975 2850 2975 3272 
Q 2975 3691 2734 3919 
Q 2494 4147 2053 4147 
L 1259 4147 
z
M 628 4666 
L 2053 4666 
Q 2838 4666 3239 4311 
Q 3641 3956 3641 3272 
Q 3641 2581 3239 2228 
Q 2838 1875 2053 1875 
L 1259 1875 
L 1259 0 
L 628 0 
L 628 4666 
z
" transform="scale(0.015625)"/>
     </defs>
     <use xlink:href="#DejaVuSans-50"/>
    </g>
   </g>
   <g id="text_10">
    <!-- Q -->
    <g style="fill: #f1f5f8" transform="translate(310.612262 208.61646) scale(0.09 -0.09)">
     <defs>
      <path id="DejaVuSans-51" d="M 2522 4238 
Q 1834 4238 1429 3725 
Q 1025 3213 1025 2328 
Q 1025 1447 1429 934 
Q 1834 422 2522 422 
Q 3209 422 3611 934 
Q 4013 1447 4013 2328 
Q 4013 3213 3611 3725 
Q 3209 4238 2522 4238 
z
M 3406 84 
L 4238 -825 
L 3475 -825 
L 2784 -78 
Q 2681 -84 2626 -87 
Q 2572 -91 2522 -91 
Q 1538 -91 948 567 
Q 359 1225 359 2328 
Q 359 3434 948 4092 
Q 1538 4750 2522 4750 
Q 3503 4750 4090 4092 
Q 4678 3434 4678 2328 
Q 4678 1516 4351 937 
Q 4025 359 3406 84 
z
" transform="scale(0.015625)"/>
     </defs>
     <use xlink:href="#DejaVuSans-51"/>
    </g>
   </g>
   <g id="text_11">
    <!-- equal angle | radical axis | altitude -->
    <g style="fill: #e7edf2" transform="translate(209.120625 16.370625) scale(0.12 -0.12)">
     <defs>
      <path id="DejaVuSans-65" d="M 3597 1894 
L 3597 1613 
L 953 1613 
Q 991 1019 1311 708 
Q 1631 397 2203 397 
Q 2534 397 2845 478 
Q 3156 559 3463 722 
L 3463 178 
Q 3153 47 2828 -22 
Q 2503 -91 2169 -91 
Q 1331 -91 842 396 
Q 353 884 353 1716 
Q 353 2575 817 3079 
Q 1281 3584 2069 3584 
Q 2775 3584 3186 3129 
Q 3597 2675 3597 1894 
z
M 3022 2063 
Q 3016 2534 2758 2815 
Q 2500 3097 2075 3097 
Q 1594 3097 1305 2825 
Q 1016 2553 972 2059 
L 3022 2063 
z
" transform="scale(0.015625)"/>
      <path id="DejaVuSans-71" d="M 947 1747 
Q 947 1113 1208 752 
Q 1469 391 1925 391 
Q 2381 391 2643 752 
Q 2906 1113 2906 1747 
Q 2906 2381 2643 2742 
Q 2381 3103 1925 3103 
Q 1469 3103 1208 2742 
Q 947 2381 947 1747 
z
M 2906 525 
Q 2725 213 2448 61 
Q 2172 -91 1784 -91 
Q 1150 -91 751 415 
Q 353 922 353 1747 
Q 353 2572 751 3078 
Q 1150 3584 1784 3584 
Q 2172 3584 2448 3432 
Q 2725 3281 2906 2969 
L 2906 3500 
L 3481 3500 
L 3481 -1331 
L 2906 -1331 
L 2906 525 
z
" transform="scale(0.015625)"/>
      <path id="DejaVuSans-75" d="M 544 1381 
L 544 3500 
L 1119 3500 
L 1119 1403 
Q 1119 906 1312 657 
Q 1506 409 1894 409 
Q 2359 409 2629 706 
Q 2900 1003 2900 1516 
L 2900 3500 
L 3475 3500 
L 3475 0 
L 2900 0 
L 2900 538 
Q 2691 219 2414 64 
Q 2138 -91 1772 -91 
Q 1169 -91 856 284 
Q 544 659 544 1381 
z
M 1991 3584 
L 1991 3584 
z
" transform="scale(0.015625)"/>
      <path id="DejaVuSans-61" d="M 2194 1759 
Q 1497 1759 1228 1600 
Q 959 1441 959 1056 
Q 959 750 1161 570 
Q 1363 391 1709 391 
Q 2188 391 2477 730 
Q 2766 1069 2766 1631 
L 2766 1759 
L 2194 1759 
z
M 3341 1997 
L 3341 0 
L 2766 0 
L 2766 531 
Q 2569 213 2275 61 
Q 1981 -91 1556 -91 
Q 1019 -91 701 211 
Q 384 513 384 1019 
Q 384 1609 779 1909 
Q 1175 2209 1959 2209 
L 2766 2209 
L 2766 2266 
Q 2766 2663 2505 2880 
Q 2244 3097 1772 3097 
Q 1472 3097 1187 3025 
Q 903 2953 641 2809 
L 641 3341 
Q 956 3463 1253 3523 
Q 1550 3584 1831 3584 
Q 2591 3584 2966 3190 
Q 3341 2797 3341 1997 
z
" transform="scale(0.015625)"/>
      <path id="DejaVuSans-6c" d="M 603 4863 
L 1178 4863 
L 1178 0 
L 603 0 
L 603 4863 
z
" transform="scale(0.015625)"/>
      <path id="DejaVuSans-20" transform="scale(0.015625)"/>
      <path id="DejaVuSans-6e" d="M 3513 2113 
L 3513 0 
L 2938 0 
L 2938 2094 
Q 2938 2591 2744 2837 
Q 2550 3084 2163 3084 
Q 1697 3084 1428 2787 
Q 1159 2491 1159 1978 
L 1159 0 
L 581 0 
L 581 3500 
L 1159 3500 
L 1159 2956 
Q 1366 3272 1645 3428 
Q 1925 3584 2291 3584 
Q 2894 3584 3203 3211 
Q 3513 2838 3513 2113 
z
" transform="scale(0.015625)"/>
      <path id="DejaVuSans-67" d="M 2906 1791 
Q 2906 2416 2648 2759 
Q 2391 3103 1925 3103 
Q 1463 3103 1205 2759 
Q 947 2416 947 1791 
Q 947 1169 1205 825 
Q 1463 481 1925 481 
Q 2391 481 2648 825 
Q 2906 1169 2906 1791 
z
M 3481 434 
Q 3481 -459 3084 -895 
Q 2688 -1331 1869 -1331 
Q 1566 -1331 1297 -1286 
Q 1028 -1241 775 -1147 
L 775 -588 
Q 1028 -725 1275 -790 
Q 1522 -856 1778 -856 
Q 2344 -856 2625 -561 
Q 2906 -266 2906 331 
L 2906 616 
Q 2728 306 2450 153 
Q 2172 0 1784 0 
Q 1141 0 747 490 
Q 353 981 353 1791 
Q 353 2603 747 3093 
Q 1141 3584 1784 3584 
Q 2172 3584 2450 3431 
Q 2728 3278 2906 2969 
L 2906 3500 
L 3481 3500 
L 3481 434 
z
" transform="scale(0.015625)"/>
      <path id="DejaVuSans-7c" d="M 1344 4891 
L 1344 -1509 
L 813 -1509 
L 813 4891 
L 1344 4891 
z
" transform="scale(0.015625)"/>
      <path id="DejaVuSans-72" d="M 2631 2963 
Q 2534 3019 2420 3045 
Q 2306 3072 2169 3072 
Q 1681 3072 1420 2755 
Q 1159 2438 1159 1844 
L 1159 0 
L 581 0 
L 581 3500 
L 1159 3500 
L 1159 2956 
Q 1341 3275 1631 3429 
Q 1922 3584 2338 3584 
Q 2397 3584 2469 3576 
Q 2541 3569 2628 3553 
L 2631 2963 
z
" transform="scale(0.015625)"/>
      <path id="DejaVuSans-64" d="M 2906 2969 
L 2906 4863 
L 3481 4863 
L 3481 0 
L 2906 0 
L 2906 525 
Q 2725 213 2448 61 
Q 2172 -91 1784 -91 
Q 1150 -91 751 415 
Q 353 922 353 1747 
Q 353 2572 751 3078 
Q 1150 3584 1784 3584 
Q 2172 3584 2448 3432 
Q 2725 3281 2906 2969 
z
M 947 1747 
Q 947 1113 1208 752 
Q 1469 391 1925 391 
Q 2381 391 2643 752 
Q 2906 1113 2906 1747 
Q 2906 2381 2643 2742 
Q 2381 3103 1925 3103 
Q 1469 3103 1208 2742 
Q 947 2381 947 1747 
z
" transform="scale(0.015625)"/>
      <path id="DejaVuSans-69" d="M 603 3500 
L 1178 3500 
L 1178 0 
L 603 0 
L 603 3500 
z
M 603 4863 
L 1178 4863 
L 1178 4134 
L 603 4134 
L 603 4863 
z
" transform="scale(0.015625)"/>
      <path id="DejaVuSans-63" d="M 3122 3366 
L 3122 2828 
Q 2878 2963 2633 3030 
Q 2388 3097 2138 3097 
Q 1578 3097 1268 2742 
Q 959 2388 959 1747 
Q 959 1106 1268 751 
Q 1578 397 2138 397 
Q 2388 397 2633 464 
Q 2878 531 3122 666 
L 3122 134 
Q 2881 22 2623 -34 
Q 2366 -91 2075 -91 
Q 1284 -91 818 406 
Q 353 903 353 1747 
Q 353 2603 823 3093 
Q 1294 3584 2113 3584 
Q 2378 3584 2631 3529 
Q 2884 3475 3122 3366 
z
" transform="scale(0.015625)"/>
      <path id="DejaVuSans-78" d="M 3513 3500 
L 2247 1797 
L 3578 0 
L 2900 0 
L 1881 1375 
L 863 0 
L 184 0 
L 1544 1831 
L 300 3500 
L 978 3500 
L 1906 2253 
L 2834 3500 
L 3513 3500 
z
" transform="scale(0.015625)"/>
      <path id="DejaVuSans-73" d="M 2834 3397 
L 2834 2853 
Q 2591 2978 2328 3040 
Q 2066 3103 1784 3103 
Q 1356 3103 1142 2972 
Q 928 2841 928 2578 
Q 928 2378 1081 2264 
Q 1234 2150 1697 2047 
L 1894 2003 
Q 2506 1872 2764 1633 
Q 3022 1394 3022 966 
Q 3022 478 2636 193 
Q 2250 -91 1575 -91 
Q 1294 -91 989 -36 
Q 684 19 347 128 
L 347 722 
Q 666 556 975 473 
Q 1284 391 1588 391 
Q 1994 391 2212 530 
Q 2431 669 2431 922 
Q 2431 1156 2273 1281 
Q 2116 1406 1581 1522 
L 1381 1569 
Q 847 1681 609 1914 
Q 372 2147 372 2553 
Q 372 3047 722 3315 
Q 1072 3584 1716 3584 
Q 2034 3584 2315 3537 
Q 2597 3491 2834 3397 
z
" transform="scale(0.015625)"/>
      <path id="DejaVuSans-74" d="M 1172 4494 
L 1172 3500 
L 2356 3500 
L 2356 3053 
L 1172 3053 
L 1172 1153 
Q 1172 725 1289 603 
Q 1406 481 1766 481 
L 2356 481 
L 2356 0 
L 1766 0 
Q 1100 0 847 248 
Q 594 497 594 1153 
L 594 3053 
L 172 3053 
L 172 3500 
L 594 3500 
L 594 4494 
L 1172 4494 
z
" transform="scale(0.015625)"/>
     </defs>
     <use xlink:href="#DejaVuSans-65"/>
     <use xlink:href="#DejaVuSans-71" transform="translate(61.523438 0)"/>
     <use xlink:href="#DejaVuSans-75" transform="translate(125 0)"/>
     <use xlink:href="#DejaVuSans-61" transform="translate(188.378906 0)"/>
     <use xlink:href="#DejaVuSans-6c" transform="translate(249.658203 0)"/>
     <use xlink:href="#DejaVuSans-20" transform="translate(277.441406 0)"/>
     <use xlink:href="#DejaVuSans-61" transform="translate(309.228516 0)"/>
     <use xlink:href="#DejaVuSans-6e" transform="translate(370.507812 0)"/>
     <use xlink:href="#DejaVuSans-67" transform="translate(433.886719 0)"/>
     <use xlink:href="#DejaVuSans-6c" transform="translate(497.363281 0)"/>
     <use xlink:href="#DejaVuSans-65" transform="translate(525.146484 0)"/>
     <use xlink:href="#DejaVuSans-20" transform="translate(586.669922 0)"/>
     <use xlink:href="#DejaVuSans-7c" transform="translate(618.457031 0)"/>
     <use xlink:href="#DejaVuSans-20" transform="translate(652.148438 0)"/>
     <use xlink:href="#DejaVuSans-72" transform="translate(683.935547 0)"/>
     <use xlink:href="#DejaVuSans-61" transform="translate(725.048828 0)"/>
     <use xlink:href="#DejaVuSans-64" transform="translate(786.328125 0)"/>
     <use xlink:href="#DejaVuSans-69" transform="translate(849.804688 0)"/>
     <use xlink:href="#DejaVuSans-63" transform="translate(877.587891 0)"/>
     <use xlink:href="#DejaVuSans-61" transform="translate(932.568359 0)"/>
     <use xlink:href="#DejaVuSans-6c" transform="translate(993.847656 0)"/>
     <use xlink:href="#DejaVuSans-20" transform="translate(1021.630859 0)"/>
     <use xlink:href="#DejaVuSans-61" transform="translate(1053.417969 0)"/>
     <use xlink:href="#DejaVuSans-78" transform="translate(1114.697266 0)"/>
     <use xlink:href="#DejaVuSans-69" transform="translate(1173.876953 0)"/>
     <use xlink:href="#DejaVuSans-73" transform="translate(1201.660156 0)"/>
     <use xlink:href="#DejaVuSans-20" transform="translate(1253.759766 0)"/>
     <use xlink:href="#DejaVuSans-7c" transform="translate(1285.546875 0)"/>
     <use xlink:href="#DejaVuSans-20" transform="translate(1319.238281 0)"/>
     <use xlink:href="#DejaVuSans-61" transform="translate(1351.025391 0)"/>
     <use xlink:href="#DejaVuSans-6c" transform="translate(1412.304688 0)"/>
     <use xlink:href="#DejaVuSans-74" transform="translate(1440.087891 0)"/>
     <use xlink:href="#DejaVuSans-69" transform="translate(1479.296875 0)"/>
     <use xlink:href="#DejaVuSans-74" transform="translate(1507.080078 0)"/>
     <use xlink:href="#DejaVuSans-75" transform="translate(1546.289062 0)"/>
     <use xlink:href="#DejaVuSans-64" transform="translate(1609.667969 0)"/>
     <use xlink:href="#DejaVuSans-65" transform="translate(1673.144531 0)"/>
    </g>
   </g>
   <g id="PathCollection_1">
    <defs>
     <path id="m58664cd0cd" d="M 0 2.44949 
C 0.649612 2.44949 1.272706 2.191396 1.732051 1.732051 
C 2.191396 1.272706 2.44949 0.649612 2.44949 0 
C 2.44949 -0.649612 2.191396 -1.272706 1.732051 -1.732051 
C 1.272706 -2.191396 0.649612 -2.44949 0 -2.44949 
C -0.649612 -2.44949 -1.272706 -2.191396 -1.732051 -1.732051 
C -2.191396 -1.272706 -2.44949 -0.649612 -2.44949 0 
C -2.44949 0.649612 -2.191396 1.272706 -1.732051 1.732051 
C -1.272706 2.191396 -0.649612 2.44949 0 2.44949 
z
" style="stroke: #f1f5f8"/>
    </defs>
    <g clip-path="url(#p605599f831)">
     <use xlink:href="#m58664cd0cd" x="293.791966" y="58.527665" style="fill: #f1f5f8; stroke: #f1f5f8"/>
    </g>
   </g>
   <g id="PathCollection_2">
    <g clip-path="url(#p605599f831)">
     <use xlink:href="#m58664cd0cd" x="35.018182" y="394.933585" style="fill: #f1f5f8; stroke: #f1f5f8"/>
    </g>
   </g>
   <g id="PathCollection_3">
    <g clip-path="url(#p605599f831)">
     <use xlink:href="#m58664cd0cd" x="591.381818" y="369.056206" style="fill: #f1f5f8; stroke: #f1f5f8"/>
    </g>
   </g>
   <g id="PathCollection_4">
    <g clip-path="url(#p605599f831)">
     <use xlink:href="#m58664cd0cd" x="309.318393" y="323.770794" style="fill: #f1f5f8; stroke: #f1f5f8"/>
    </g>
   </g>
   <g id="PathCollection_5">
    <g clip-path="url(#p605599f831)">
     <use xlink:href="#m58664cd0cd" x="298.967442" y="259.077348" style="fill: #f1f5f8; stroke: #f1f5f8"/>
    </g>
   </g>
   <g id="PathCollection_6">
    <g clip-path="url(#p605599f831)">
     <use xlink:href="#m58664cd0cd" x="416.709514" y="220.26128" style="fill: #f1f5f8; stroke: #f1f5f8"/>
    </g>
   </g>
   <g id="PathCollection_7">
    <g clip-path="url(#p605599f831)">
     <use xlink:href="#m58664cd0cd" x="177.343763" y="207.322591" style="fill: #f1f5f8; stroke: #f1f5f8"/>
    </g>
   </g>
   <g id="PathCollection_8">
    <g clip-path="url(#p605599f831)">
     <use xlink:href="#m58664cd0cd" x="296.379704" y="168.506524" style="fill: #f1f5f8; stroke: #f1f5f8"/>
    </g>
   </g>
   <g id="PathCollection_9">
    <g clip-path="url(#p605599f831)">
     <use xlink:href="#m58664cd0cd" x="306.730655" y="375.525551" style="fill: #f1f5f8; stroke: #f1f5f8"/>
    </g>
   </g>
   <g id="PathCollection_10">
    <g clip-path="url(#p605599f831)">
     <use xlink:href="#m58664cd0cd" x="304.142918" y="213.791936" style="fill: #f1f5f8; stroke: #f1f5f8"/>
    </g>
   </g>
  </g>
 </g>
 <defs>
  <clipPath id="p605599f831">
   <rect x="7.2" y="22.370625" width="612" height="408.72"/>
  </clipPath>
 </defs>
</svg>
